%TF.GenerationSoftware,KiCad,Pcbnew,8.0.3*%
%TF.CreationDate,2024-07-09T00:13:46+05:30*%
%TF.ProjectId,STM32 PCB DESIGN,53544d33-3220-4504-9342-204445534947,rev?*%
%TF.SameCoordinates,Original*%
%TF.FileFunction,Legend,Top*%
%TF.FilePolarity,Positive*%
%FSLAX46Y46*%
G04 Gerber Fmt 4.6, Leading zero omitted, Abs format (unit mm)*
G04 Created by KiCad (PCBNEW 8.0.3) date 2024-07-09 00:13:46*
%MOMM*%
%LPD*%
G01*
G04 APERTURE LIST*
%ADD10C,0.600000*%
%ADD11C,0.250000*%
%ADD12C,0.200000*%
%ADD13C,0.150000*%
%ADD14C,0.120000*%
G04 APERTURE END LIST*
D10*
X118370926Y-47043800D02*
X118728069Y-47162847D01*
X118728069Y-47162847D02*
X119323307Y-47162847D01*
X119323307Y-47162847D02*
X119561402Y-47043800D01*
X119561402Y-47043800D02*
X119680450Y-46924752D01*
X119680450Y-46924752D02*
X119799497Y-46686657D01*
X119799497Y-46686657D02*
X119799497Y-46448561D01*
X119799497Y-46448561D02*
X119680450Y-46210466D01*
X119680450Y-46210466D02*
X119561402Y-46091419D01*
X119561402Y-46091419D02*
X119323307Y-45972371D01*
X119323307Y-45972371D02*
X118847116Y-45853323D01*
X118847116Y-45853323D02*
X118609021Y-45734276D01*
X118609021Y-45734276D02*
X118489974Y-45615228D01*
X118489974Y-45615228D02*
X118370926Y-45377133D01*
X118370926Y-45377133D02*
X118370926Y-45139038D01*
X118370926Y-45139038D02*
X118489974Y-44900942D01*
X118489974Y-44900942D02*
X118609021Y-44781895D01*
X118609021Y-44781895D02*
X118847116Y-44662847D01*
X118847116Y-44662847D02*
X119442355Y-44662847D01*
X119442355Y-44662847D02*
X119799497Y-44781895D01*
X120513783Y-44662847D02*
X121942354Y-44662847D01*
X121228068Y-47162847D02*
X121228068Y-44662847D01*
X122775688Y-47162847D02*
X122775688Y-44662847D01*
X122775688Y-44662847D02*
X123609021Y-46448561D01*
X123609021Y-46448561D02*
X124442354Y-44662847D01*
X124442354Y-44662847D02*
X124442354Y-47162847D01*
X125394735Y-44662847D02*
X126942354Y-44662847D01*
X126942354Y-44662847D02*
X126109021Y-45615228D01*
X126109021Y-45615228D02*
X126466164Y-45615228D01*
X126466164Y-45615228D02*
X126704259Y-45734276D01*
X126704259Y-45734276D02*
X126823307Y-45853323D01*
X126823307Y-45853323D02*
X126942354Y-46091419D01*
X126942354Y-46091419D02*
X126942354Y-46686657D01*
X126942354Y-46686657D02*
X126823307Y-46924752D01*
X126823307Y-46924752D02*
X126704259Y-47043800D01*
X126704259Y-47043800D02*
X126466164Y-47162847D01*
X126466164Y-47162847D02*
X125751878Y-47162847D01*
X125751878Y-47162847D02*
X125513783Y-47043800D01*
X125513783Y-47043800D02*
X125394735Y-46924752D01*
X127894735Y-44900942D02*
X128013783Y-44781895D01*
X128013783Y-44781895D02*
X128251878Y-44662847D01*
X128251878Y-44662847D02*
X128847116Y-44662847D01*
X128847116Y-44662847D02*
X129085211Y-44781895D01*
X129085211Y-44781895D02*
X129204259Y-44900942D01*
X129204259Y-44900942D02*
X129323306Y-45139038D01*
X129323306Y-45139038D02*
X129323306Y-45377133D01*
X129323306Y-45377133D02*
X129204259Y-45734276D01*
X129204259Y-45734276D02*
X127775687Y-47162847D01*
X127775687Y-47162847D02*
X129323306Y-47162847D01*
D11*
X132962092Y-45584023D02*
X132962092Y-46595928D01*
X132962092Y-46595928D02*
X133021615Y-46714976D01*
X133021615Y-46714976D02*
X133081139Y-46774500D01*
X133081139Y-46774500D02*
X133200187Y-46834023D01*
X133200187Y-46834023D02*
X133438282Y-46834023D01*
X133438282Y-46834023D02*
X133557330Y-46774500D01*
X133557330Y-46774500D02*
X133616853Y-46714976D01*
X133616853Y-46714976D02*
X133676377Y-46595928D01*
X133676377Y-46595928D02*
X133676377Y-45584023D01*
X134212092Y-46774500D02*
X134390663Y-46834023D01*
X134390663Y-46834023D02*
X134688282Y-46834023D01*
X134688282Y-46834023D02*
X134807330Y-46774500D01*
X134807330Y-46774500D02*
X134866854Y-46714976D01*
X134866854Y-46714976D02*
X134926377Y-46595928D01*
X134926377Y-46595928D02*
X134926377Y-46476880D01*
X134926377Y-46476880D02*
X134866854Y-46357833D01*
X134866854Y-46357833D02*
X134807330Y-46298309D01*
X134807330Y-46298309D02*
X134688282Y-46238785D01*
X134688282Y-46238785D02*
X134450187Y-46179261D01*
X134450187Y-46179261D02*
X134331139Y-46119738D01*
X134331139Y-46119738D02*
X134271616Y-46060214D01*
X134271616Y-46060214D02*
X134212092Y-45941166D01*
X134212092Y-45941166D02*
X134212092Y-45822119D01*
X134212092Y-45822119D02*
X134271616Y-45703071D01*
X134271616Y-45703071D02*
X134331139Y-45643547D01*
X134331139Y-45643547D02*
X134450187Y-45584023D01*
X134450187Y-45584023D02*
X134747806Y-45584023D01*
X134747806Y-45584023D02*
X134926377Y-45643547D01*
X135878758Y-46179261D02*
X136057330Y-46238785D01*
X136057330Y-46238785D02*
X136116853Y-46298309D01*
X136116853Y-46298309D02*
X136176377Y-46417357D01*
X136176377Y-46417357D02*
X136176377Y-46595928D01*
X136176377Y-46595928D02*
X136116853Y-46714976D01*
X136116853Y-46714976D02*
X136057330Y-46774500D01*
X136057330Y-46774500D02*
X135938282Y-46834023D01*
X135938282Y-46834023D02*
X135462092Y-46834023D01*
X135462092Y-46834023D02*
X135462092Y-45584023D01*
X135462092Y-45584023D02*
X135878758Y-45584023D01*
X135878758Y-45584023D02*
X135997806Y-45643547D01*
X135997806Y-45643547D02*
X136057330Y-45703071D01*
X136057330Y-45703071D02*
X136116853Y-45822119D01*
X136116853Y-45822119D02*
X136116853Y-45941166D01*
X136116853Y-45941166D02*
X136057330Y-46060214D01*
X136057330Y-46060214D02*
X135997806Y-46119738D01*
X135997806Y-46119738D02*
X135878758Y-46179261D01*
X135878758Y-46179261D02*
X135462092Y-46179261D01*
X110962092Y-41584023D02*
X110962092Y-42595928D01*
X110962092Y-42595928D02*
X111021615Y-42714976D01*
X111021615Y-42714976D02*
X111081139Y-42774500D01*
X111081139Y-42774500D02*
X111200187Y-42834023D01*
X111200187Y-42834023D02*
X111438282Y-42834023D01*
X111438282Y-42834023D02*
X111557330Y-42774500D01*
X111557330Y-42774500D02*
X111616853Y-42714976D01*
X111616853Y-42714976D02*
X111676377Y-42595928D01*
X111676377Y-42595928D02*
X111676377Y-41584023D01*
X112212092Y-42476880D02*
X112807330Y-42476880D01*
X112093044Y-42834023D02*
X112509711Y-41584023D01*
X112509711Y-41584023D02*
X112926377Y-42834023D01*
X114057330Y-42834023D02*
X113640664Y-42238785D01*
X113343045Y-42834023D02*
X113343045Y-41584023D01*
X113343045Y-41584023D02*
X113819235Y-41584023D01*
X113819235Y-41584023D02*
X113938283Y-41643547D01*
X113938283Y-41643547D02*
X113997806Y-41703071D01*
X113997806Y-41703071D02*
X114057330Y-41822119D01*
X114057330Y-41822119D02*
X114057330Y-42000690D01*
X114057330Y-42000690D02*
X113997806Y-42119738D01*
X113997806Y-42119738D02*
X113938283Y-42179261D01*
X113938283Y-42179261D02*
X113819235Y-42238785D01*
X113819235Y-42238785D02*
X113343045Y-42238785D01*
X114414473Y-41584023D02*
X115128759Y-41584023D01*
X114771616Y-42834023D02*
X114771616Y-41584023D01*
X124402568Y-42274500D02*
X124581139Y-42334023D01*
X124581139Y-42334023D02*
X124878758Y-42334023D01*
X124878758Y-42334023D02*
X124997806Y-42274500D01*
X124997806Y-42274500D02*
X125057330Y-42214976D01*
X125057330Y-42214976D02*
X125116853Y-42095928D01*
X125116853Y-42095928D02*
X125116853Y-41976880D01*
X125116853Y-41976880D02*
X125057330Y-41857833D01*
X125057330Y-41857833D02*
X124997806Y-41798309D01*
X124997806Y-41798309D02*
X124878758Y-41738785D01*
X124878758Y-41738785D02*
X124640663Y-41679261D01*
X124640663Y-41679261D02*
X124521615Y-41619738D01*
X124521615Y-41619738D02*
X124462092Y-41560214D01*
X124462092Y-41560214D02*
X124402568Y-41441166D01*
X124402568Y-41441166D02*
X124402568Y-41322119D01*
X124402568Y-41322119D02*
X124462092Y-41203071D01*
X124462092Y-41203071D02*
X124521615Y-41143547D01*
X124521615Y-41143547D02*
X124640663Y-41084023D01*
X124640663Y-41084023D02*
X124938282Y-41084023D01*
X124938282Y-41084023D02*
X125116853Y-41143547D01*
X125533520Y-41084023D02*
X125831139Y-42334023D01*
X125831139Y-42334023D02*
X126069234Y-41441166D01*
X126069234Y-41441166D02*
X126307329Y-42334023D01*
X126307329Y-42334023D02*
X126604949Y-41084023D01*
X127081139Y-42334023D02*
X127081139Y-41084023D01*
X127081139Y-41084023D02*
X127378758Y-41084023D01*
X127378758Y-41084023D02*
X127557329Y-41143547D01*
X127557329Y-41143547D02*
X127676377Y-41262595D01*
X127676377Y-41262595D02*
X127735900Y-41381642D01*
X127735900Y-41381642D02*
X127795424Y-41619738D01*
X127795424Y-41619738D02*
X127795424Y-41798309D01*
X127795424Y-41798309D02*
X127735900Y-42036404D01*
X127735900Y-42036404D02*
X127676377Y-42155452D01*
X127676377Y-42155452D02*
X127557329Y-42274500D01*
X127557329Y-42274500D02*
X127378758Y-42334023D01*
X127378758Y-42334023D02*
X127081139Y-42334023D01*
D12*
X102703006Y-51843409D02*
X102845863Y-51891028D01*
X102845863Y-51891028D02*
X102893482Y-51938647D01*
X102893482Y-51938647D02*
X102941101Y-52033885D01*
X102941101Y-52033885D02*
X102941101Y-52176742D01*
X102941101Y-52176742D02*
X102893482Y-52271980D01*
X102893482Y-52271980D02*
X102845863Y-52319600D01*
X102845863Y-52319600D02*
X102750625Y-52367219D01*
X102750625Y-52367219D02*
X102369673Y-52367219D01*
X102369673Y-52367219D02*
X102369673Y-51367219D01*
X102369673Y-51367219D02*
X102703006Y-51367219D01*
X102703006Y-51367219D02*
X102798244Y-51414838D01*
X102798244Y-51414838D02*
X102845863Y-51462457D01*
X102845863Y-51462457D02*
X102893482Y-51557695D01*
X102893482Y-51557695D02*
X102893482Y-51652933D01*
X102893482Y-51652933D02*
X102845863Y-51748171D01*
X102845863Y-51748171D02*
X102798244Y-51795790D01*
X102798244Y-51795790D02*
X102703006Y-51843409D01*
X102703006Y-51843409D02*
X102369673Y-51843409D01*
X103560149Y-51367219D02*
X103750625Y-51367219D01*
X103750625Y-51367219D02*
X103845863Y-51414838D01*
X103845863Y-51414838D02*
X103941101Y-51510076D01*
X103941101Y-51510076D02*
X103988720Y-51700552D01*
X103988720Y-51700552D02*
X103988720Y-52033885D01*
X103988720Y-52033885D02*
X103941101Y-52224361D01*
X103941101Y-52224361D02*
X103845863Y-52319600D01*
X103845863Y-52319600D02*
X103750625Y-52367219D01*
X103750625Y-52367219D02*
X103560149Y-52367219D01*
X103560149Y-52367219D02*
X103464911Y-52319600D01*
X103464911Y-52319600D02*
X103369673Y-52224361D01*
X103369673Y-52224361D02*
X103322054Y-52033885D01*
X103322054Y-52033885D02*
X103322054Y-51700552D01*
X103322054Y-51700552D02*
X103369673Y-51510076D01*
X103369673Y-51510076D02*
X103464911Y-51414838D01*
X103464911Y-51414838D02*
X103560149Y-51367219D01*
X104607768Y-51367219D02*
X104798244Y-51367219D01*
X104798244Y-51367219D02*
X104893482Y-51414838D01*
X104893482Y-51414838D02*
X104988720Y-51510076D01*
X104988720Y-51510076D02*
X105036339Y-51700552D01*
X105036339Y-51700552D02*
X105036339Y-52033885D01*
X105036339Y-52033885D02*
X104988720Y-52224361D01*
X104988720Y-52224361D02*
X104893482Y-52319600D01*
X104893482Y-52319600D02*
X104798244Y-52367219D01*
X104798244Y-52367219D02*
X104607768Y-52367219D01*
X104607768Y-52367219D02*
X104512530Y-52319600D01*
X104512530Y-52319600D02*
X104417292Y-52224361D01*
X104417292Y-52224361D02*
X104369673Y-52033885D01*
X104369673Y-52033885D02*
X104369673Y-51700552D01*
X104369673Y-51700552D02*
X104417292Y-51510076D01*
X104417292Y-51510076D02*
X104512530Y-51414838D01*
X104512530Y-51414838D02*
X104607768Y-51367219D01*
X105322054Y-51367219D02*
X105893482Y-51367219D01*
X105607768Y-52367219D02*
X105607768Y-51367219D01*
D13*
X112333333Y-63954819D02*
X112000000Y-63478628D01*
X111761905Y-63954819D02*
X111761905Y-62954819D01*
X111761905Y-62954819D02*
X112142857Y-62954819D01*
X112142857Y-62954819D02*
X112238095Y-63002438D01*
X112238095Y-63002438D02*
X112285714Y-63050057D01*
X112285714Y-63050057D02*
X112333333Y-63145295D01*
X112333333Y-63145295D02*
X112333333Y-63288152D01*
X112333333Y-63288152D02*
X112285714Y-63383390D01*
X112285714Y-63383390D02*
X112238095Y-63431009D01*
X112238095Y-63431009D02*
X112142857Y-63478628D01*
X112142857Y-63478628D02*
X111761905Y-63478628D01*
X113190476Y-63288152D02*
X113190476Y-63954819D01*
X112952381Y-62907200D02*
X112714286Y-63621485D01*
X112714286Y-63621485D02*
X113333333Y-63621485D01*
X106833333Y-60359580D02*
X106785714Y-60407200D01*
X106785714Y-60407200D02*
X106642857Y-60454819D01*
X106642857Y-60454819D02*
X106547619Y-60454819D01*
X106547619Y-60454819D02*
X106404762Y-60407200D01*
X106404762Y-60407200D02*
X106309524Y-60311961D01*
X106309524Y-60311961D02*
X106261905Y-60216723D01*
X106261905Y-60216723D02*
X106214286Y-60026247D01*
X106214286Y-60026247D02*
X106214286Y-59883390D01*
X106214286Y-59883390D02*
X106261905Y-59692914D01*
X106261905Y-59692914D02*
X106309524Y-59597676D01*
X106309524Y-59597676D02*
X106404762Y-59502438D01*
X106404762Y-59502438D02*
X106547619Y-59454819D01*
X106547619Y-59454819D02*
X106642857Y-59454819D01*
X106642857Y-59454819D02*
X106785714Y-59502438D01*
X106785714Y-59502438D02*
X106833333Y-59550057D01*
X107404762Y-59883390D02*
X107309524Y-59835771D01*
X107309524Y-59835771D02*
X107261905Y-59788152D01*
X107261905Y-59788152D02*
X107214286Y-59692914D01*
X107214286Y-59692914D02*
X107214286Y-59645295D01*
X107214286Y-59645295D02*
X107261905Y-59550057D01*
X107261905Y-59550057D02*
X107309524Y-59502438D01*
X107309524Y-59502438D02*
X107404762Y-59454819D01*
X107404762Y-59454819D02*
X107595238Y-59454819D01*
X107595238Y-59454819D02*
X107690476Y-59502438D01*
X107690476Y-59502438D02*
X107738095Y-59550057D01*
X107738095Y-59550057D02*
X107785714Y-59645295D01*
X107785714Y-59645295D02*
X107785714Y-59692914D01*
X107785714Y-59692914D02*
X107738095Y-59788152D01*
X107738095Y-59788152D02*
X107690476Y-59835771D01*
X107690476Y-59835771D02*
X107595238Y-59883390D01*
X107595238Y-59883390D02*
X107404762Y-59883390D01*
X107404762Y-59883390D02*
X107309524Y-59931009D01*
X107309524Y-59931009D02*
X107261905Y-59978628D01*
X107261905Y-59978628D02*
X107214286Y-60073866D01*
X107214286Y-60073866D02*
X107214286Y-60264342D01*
X107214286Y-60264342D02*
X107261905Y-60359580D01*
X107261905Y-60359580D02*
X107309524Y-60407200D01*
X107309524Y-60407200D02*
X107404762Y-60454819D01*
X107404762Y-60454819D02*
X107595238Y-60454819D01*
X107595238Y-60454819D02*
X107690476Y-60407200D01*
X107690476Y-60407200D02*
X107738095Y-60359580D01*
X107738095Y-60359580D02*
X107785714Y-60264342D01*
X107785714Y-60264342D02*
X107785714Y-60073866D01*
X107785714Y-60073866D02*
X107738095Y-59978628D01*
X107738095Y-59978628D02*
X107690476Y-59931009D01*
X107690476Y-59931009D02*
X107595238Y-59883390D01*
X122993333Y-52359580D02*
X122945714Y-52407200D01*
X122945714Y-52407200D02*
X122802857Y-52454819D01*
X122802857Y-52454819D02*
X122707619Y-52454819D01*
X122707619Y-52454819D02*
X122564762Y-52407200D01*
X122564762Y-52407200D02*
X122469524Y-52311961D01*
X122469524Y-52311961D02*
X122421905Y-52216723D01*
X122421905Y-52216723D02*
X122374286Y-52026247D01*
X122374286Y-52026247D02*
X122374286Y-51883390D01*
X122374286Y-51883390D02*
X122421905Y-51692914D01*
X122421905Y-51692914D02*
X122469524Y-51597676D01*
X122469524Y-51597676D02*
X122564762Y-51502438D01*
X122564762Y-51502438D02*
X122707619Y-51454819D01*
X122707619Y-51454819D02*
X122802857Y-51454819D01*
X122802857Y-51454819D02*
X122945714Y-51502438D01*
X122945714Y-51502438D02*
X122993333Y-51550057D01*
X123374286Y-51550057D02*
X123421905Y-51502438D01*
X123421905Y-51502438D02*
X123517143Y-51454819D01*
X123517143Y-51454819D02*
X123755238Y-51454819D01*
X123755238Y-51454819D02*
X123850476Y-51502438D01*
X123850476Y-51502438D02*
X123898095Y-51550057D01*
X123898095Y-51550057D02*
X123945714Y-51645295D01*
X123945714Y-51645295D02*
X123945714Y-51740533D01*
X123945714Y-51740533D02*
X123898095Y-51883390D01*
X123898095Y-51883390D02*
X123326667Y-52454819D01*
X123326667Y-52454819D02*
X123945714Y-52454819D01*
X109833333Y-50359580D02*
X109785714Y-50407200D01*
X109785714Y-50407200D02*
X109642857Y-50454819D01*
X109642857Y-50454819D02*
X109547619Y-50454819D01*
X109547619Y-50454819D02*
X109404762Y-50407200D01*
X109404762Y-50407200D02*
X109309524Y-50311961D01*
X109309524Y-50311961D02*
X109261905Y-50216723D01*
X109261905Y-50216723D02*
X109214286Y-50026247D01*
X109214286Y-50026247D02*
X109214286Y-49883390D01*
X109214286Y-49883390D02*
X109261905Y-49692914D01*
X109261905Y-49692914D02*
X109309524Y-49597676D01*
X109309524Y-49597676D02*
X109404762Y-49502438D01*
X109404762Y-49502438D02*
X109547619Y-49454819D01*
X109547619Y-49454819D02*
X109642857Y-49454819D01*
X109642857Y-49454819D02*
X109785714Y-49502438D01*
X109785714Y-49502438D02*
X109833333Y-49550057D01*
X110690476Y-49788152D02*
X110690476Y-50454819D01*
X110452381Y-49407200D02*
X110214286Y-50121485D01*
X110214286Y-50121485D02*
X110833333Y-50121485D01*
X111333333Y-47359580D02*
X111285714Y-47407200D01*
X111285714Y-47407200D02*
X111142857Y-47454819D01*
X111142857Y-47454819D02*
X111047619Y-47454819D01*
X111047619Y-47454819D02*
X110904762Y-47407200D01*
X110904762Y-47407200D02*
X110809524Y-47311961D01*
X110809524Y-47311961D02*
X110761905Y-47216723D01*
X110761905Y-47216723D02*
X110714286Y-47026247D01*
X110714286Y-47026247D02*
X110714286Y-46883390D01*
X110714286Y-46883390D02*
X110761905Y-46692914D01*
X110761905Y-46692914D02*
X110809524Y-46597676D01*
X110809524Y-46597676D02*
X110904762Y-46502438D01*
X110904762Y-46502438D02*
X111047619Y-46454819D01*
X111047619Y-46454819D02*
X111142857Y-46454819D01*
X111142857Y-46454819D02*
X111285714Y-46502438D01*
X111285714Y-46502438D02*
X111333333Y-46550057D01*
X112238095Y-46454819D02*
X111761905Y-46454819D01*
X111761905Y-46454819D02*
X111714286Y-46931009D01*
X111714286Y-46931009D02*
X111761905Y-46883390D01*
X111761905Y-46883390D02*
X111857143Y-46835771D01*
X111857143Y-46835771D02*
X112095238Y-46835771D01*
X112095238Y-46835771D02*
X112190476Y-46883390D01*
X112190476Y-46883390D02*
X112238095Y-46931009D01*
X112238095Y-46931009D02*
X112285714Y-47026247D01*
X112285714Y-47026247D02*
X112285714Y-47264342D01*
X112285714Y-47264342D02*
X112238095Y-47359580D01*
X112238095Y-47359580D02*
X112190476Y-47407200D01*
X112190476Y-47407200D02*
X112095238Y-47454819D01*
X112095238Y-47454819D02*
X111857143Y-47454819D01*
X111857143Y-47454819D02*
X111761905Y-47407200D01*
X111761905Y-47407200D02*
X111714286Y-47359580D01*
X107357142Y-52359580D02*
X107309523Y-52407200D01*
X107309523Y-52407200D02*
X107166666Y-52454819D01*
X107166666Y-52454819D02*
X107071428Y-52454819D01*
X107071428Y-52454819D02*
X106928571Y-52407200D01*
X106928571Y-52407200D02*
X106833333Y-52311961D01*
X106833333Y-52311961D02*
X106785714Y-52216723D01*
X106785714Y-52216723D02*
X106738095Y-52026247D01*
X106738095Y-52026247D02*
X106738095Y-51883390D01*
X106738095Y-51883390D02*
X106785714Y-51692914D01*
X106785714Y-51692914D02*
X106833333Y-51597676D01*
X106833333Y-51597676D02*
X106928571Y-51502438D01*
X106928571Y-51502438D02*
X107071428Y-51454819D01*
X107071428Y-51454819D02*
X107166666Y-51454819D01*
X107166666Y-51454819D02*
X107309523Y-51502438D01*
X107309523Y-51502438D02*
X107357142Y-51550057D01*
X108309523Y-52454819D02*
X107738095Y-52454819D01*
X108023809Y-52454819D02*
X108023809Y-51454819D01*
X108023809Y-51454819D02*
X107928571Y-51597676D01*
X107928571Y-51597676D02*
X107833333Y-51692914D01*
X107833333Y-51692914D02*
X107738095Y-51740533D01*
X108928571Y-51454819D02*
X109023809Y-51454819D01*
X109023809Y-51454819D02*
X109119047Y-51502438D01*
X109119047Y-51502438D02*
X109166666Y-51550057D01*
X109166666Y-51550057D02*
X109214285Y-51645295D01*
X109214285Y-51645295D02*
X109261904Y-51835771D01*
X109261904Y-51835771D02*
X109261904Y-52073866D01*
X109261904Y-52073866D02*
X109214285Y-52264342D01*
X109214285Y-52264342D02*
X109166666Y-52359580D01*
X109166666Y-52359580D02*
X109119047Y-52407200D01*
X109119047Y-52407200D02*
X109023809Y-52454819D01*
X109023809Y-52454819D02*
X108928571Y-52454819D01*
X108928571Y-52454819D02*
X108833333Y-52407200D01*
X108833333Y-52407200D02*
X108785714Y-52359580D01*
X108785714Y-52359580D02*
X108738095Y-52264342D01*
X108738095Y-52264342D02*
X108690476Y-52073866D01*
X108690476Y-52073866D02*
X108690476Y-51835771D01*
X108690476Y-51835771D02*
X108738095Y-51645295D01*
X108738095Y-51645295D02*
X108785714Y-51550057D01*
X108785714Y-51550057D02*
X108833333Y-51502438D01*
X108833333Y-51502438D02*
X108928571Y-51454819D01*
X119333333Y-64454819D02*
X119000000Y-63978628D01*
X118761905Y-64454819D02*
X118761905Y-63454819D01*
X118761905Y-63454819D02*
X119142857Y-63454819D01*
X119142857Y-63454819D02*
X119238095Y-63502438D01*
X119238095Y-63502438D02*
X119285714Y-63550057D01*
X119285714Y-63550057D02*
X119333333Y-63645295D01*
X119333333Y-63645295D02*
X119333333Y-63788152D01*
X119333333Y-63788152D02*
X119285714Y-63883390D01*
X119285714Y-63883390D02*
X119238095Y-63931009D01*
X119238095Y-63931009D02*
X119142857Y-63978628D01*
X119142857Y-63978628D02*
X118761905Y-63978628D01*
X120238095Y-63454819D02*
X119761905Y-63454819D01*
X119761905Y-63454819D02*
X119714286Y-63931009D01*
X119714286Y-63931009D02*
X119761905Y-63883390D01*
X119761905Y-63883390D02*
X119857143Y-63835771D01*
X119857143Y-63835771D02*
X120095238Y-63835771D01*
X120095238Y-63835771D02*
X120190476Y-63883390D01*
X120190476Y-63883390D02*
X120238095Y-63931009D01*
X120238095Y-63931009D02*
X120285714Y-64026247D01*
X120285714Y-64026247D02*
X120285714Y-64264342D01*
X120285714Y-64264342D02*
X120238095Y-64359580D01*
X120238095Y-64359580D02*
X120190476Y-64407200D01*
X120190476Y-64407200D02*
X120095238Y-64454819D01*
X120095238Y-64454819D02*
X119857143Y-64454819D01*
X119857143Y-64454819D02*
X119761905Y-64407200D01*
X119761905Y-64407200D02*
X119714286Y-64359580D01*
X111333333Y-48859580D02*
X111285714Y-48907200D01*
X111285714Y-48907200D02*
X111142857Y-48954819D01*
X111142857Y-48954819D02*
X111047619Y-48954819D01*
X111047619Y-48954819D02*
X110904762Y-48907200D01*
X110904762Y-48907200D02*
X110809524Y-48811961D01*
X110809524Y-48811961D02*
X110761905Y-48716723D01*
X110761905Y-48716723D02*
X110714286Y-48526247D01*
X110714286Y-48526247D02*
X110714286Y-48383390D01*
X110714286Y-48383390D02*
X110761905Y-48192914D01*
X110761905Y-48192914D02*
X110809524Y-48097676D01*
X110809524Y-48097676D02*
X110904762Y-48002438D01*
X110904762Y-48002438D02*
X111047619Y-47954819D01*
X111047619Y-47954819D02*
X111142857Y-47954819D01*
X111142857Y-47954819D02*
X111285714Y-48002438D01*
X111285714Y-48002438D02*
X111333333Y-48050057D01*
X112285714Y-48954819D02*
X111714286Y-48954819D01*
X112000000Y-48954819D02*
X112000000Y-47954819D01*
X112000000Y-47954819D02*
X111904762Y-48097676D01*
X111904762Y-48097676D02*
X111809524Y-48192914D01*
X111809524Y-48192914D02*
X111714286Y-48240533D01*
X136333333Y-59454819D02*
X136000000Y-58978628D01*
X135761905Y-59454819D02*
X135761905Y-58454819D01*
X135761905Y-58454819D02*
X136142857Y-58454819D01*
X136142857Y-58454819D02*
X136238095Y-58502438D01*
X136238095Y-58502438D02*
X136285714Y-58550057D01*
X136285714Y-58550057D02*
X136333333Y-58645295D01*
X136333333Y-58645295D02*
X136333333Y-58788152D01*
X136333333Y-58788152D02*
X136285714Y-58883390D01*
X136285714Y-58883390D02*
X136238095Y-58931009D01*
X136238095Y-58931009D02*
X136142857Y-58978628D01*
X136142857Y-58978628D02*
X135761905Y-58978628D01*
X136666667Y-58454819D02*
X137285714Y-58454819D01*
X137285714Y-58454819D02*
X136952381Y-58835771D01*
X136952381Y-58835771D02*
X137095238Y-58835771D01*
X137095238Y-58835771D02*
X137190476Y-58883390D01*
X137190476Y-58883390D02*
X137238095Y-58931009D01*
X137238095Y-58931009D02*
X137285714Y-59026247D01*
X137285714Y-59026247D02*
X137285714Y-59264342D01*
X137285714Y-59264342D02*
X137238095Y-59359580D01*
X137238095Y-59359580D02*
X137190476Y-59407200D01*
X137190476Y-59407200D02*
X137095238Y-59454819D01*
X137095238Y-59454819D02*
X136809524Y-59454819D01*
X136809524Y-59454819D02*
X136714286Y-59407200D01*
X136714286Y-59407200D02*
X136666667Y-59359580D01*
X122288095Y-66954819D02*
X122288095Y-67764342D01*
X122288095Y-67764342D02*
X122335714Y-67859580D01*
X122335714Y-67859580D02*
X122383333Y-67907200D01*
X122383333Y-67907200D02*
X122478571Y-67954819D01*
X122478571Y-67954819D02*
X122669047Y-67954819D01*
X122669047Y-67954819D02*
X122764285Y-67907200D01*
X122764285Y-67907200D02*
X122811904Y-67859580D01*
X122811904Y-67859580D02*
X122859523Y-67764342D01*
X122859523Y-67764342D02*
X122859523Y-66954819D01*
X123288095Y-67050057D02*
X123335714Y-67002438D01*
X123335714Y-67002438D02*
X123430952Y-66954819D01*
X123430952Y-66954819D02*
X123669047Y-66954819D01*
X123669047Y-66954819D02*
X123764285Y-67002438D01*
X123764285Y-67002438D02*
X123811904Y-67050057D01*
X123811904Y-67050057D02*
X123859523Y-67145295D01*
X123859523Y-67145295D02*
X123859523Y-67240533D01*
X123859523Y-67240533D02*
X123811904Y-67383390D01*
X123811904Y-67383390D02*
X123240476Y-67954819D01*
X123240476Y-67954819D02*
X123859523Y-67954819D01*
X106813333Y-58859580D02*
X106765714Y-58907200D01*
X106765714Y-58907200D02*
X106622857Y-58954819D01*
X106622857Y-58954819D02*
X106527619Y-58954819D01*
X106527619Y-58954819D02*
X106384762Y-58907200D01*
X106384762Y-58907200D02*
X106289524Y-58811961D01*
X106289524Y-58811961D02*
X106241905Y-58716723D01*
X106241905Y-58716723D02*
X106194286Y-58526247D01*
X106194286Y-58526247D02*
X106194286Y-58383390D01*
X106194286Y-58383390D02*
X106241905Y-58192914D01*
X106241905Y-58192914D02*
X106289524Y-58097676D01*
X106289524Y-58097676D02*
X106384762Y-58002438D01*
X106384762Y-58002438D02*
X106527619Y-57954819D01*
X106527619Y-57954819D02*
X106622857Y-57954819D01*
X106622857Y-57954819D02*
X106765714Y-58002438D01*
X106765714Y-58002438D02*
X106813333Y-58050057D01*
X107146667Y-57954819D02*
X107813333Y-57954819D01*
X107813333Y-57954819D02*
X107384762Y-58954819D01*
X118833333Y-62019580D02*
X118785714Y-62067200D01*
X118785714Y-62067200D02*
X118642857Y-62114819D01*
X118642857Y-62114819D02*
X118547619Y-62114819D01*
X118547619Y-62114819D02*
X118404762Y-62067200D01*
X118404762Y-62067200D02*
X118309524Y-61971961D01*
X118309524Y-61971961D02*
X118261905Y-61876723D01*
X118261905Y-61876723D02*
X118214286Y-61686247D01*
X118214286Y-61686247D02*
X118214286Y-61543390D01*
X118214286Y-61543390D02*
X118261905Y-61352914D01*
X118261905Y-61352914D02*
X118309524Y-61257676D01*
X118309524Y-61257676D02*
X118404762Y-61162438D01*
X118404762Y-61162438D02*
X118547619Y-61114819D01*
X118547619Y-61114819D02*
X118642857Y-61114819D01*
X118642857Y-61114819D02*
X118785714Y-61162438D01*
X118785714Y-61162438D02*
X118833333Y-61210057D01*
X119166667Y-61114819D02*
X119785714Y-61114819D01*
X119785714Y-61114819D02*
X119452381Y-61495771D01*
X119452381Y-61495771D02*
X119595238Y-61495771D01*
X119595238Y-61495771D02*
X119690476Y-61543390D01*
X119690476Y-61543390D02*
X119738095Y-61591009D01*
X119738095Y-61591009D02*
X119785714Y-61686247D01*
X119785714Y-61686247D02*
X119785714Y-61924342D01*
X119785714Y-61924342D02*
X119738095Y-62019580D01*
X119738095Y-62019580D02*
X119690476Y-62067200D01*
X119690476Y-62067200D02*
X119595238Y-62114819D01*
X119595238Y-62114819D02*
X119309524Y-62114819D01*
X119309524Y-62114819D02*
X119214286Y-62067200D01*
X119214286Y-62067200D02*
X119166667Y-62019580D01*
X110166666Y-61931009D02*
X109833333Y-61931009D01*
X109833333Y-62454819D02*
X109833333Y-61454819D01*
X109833333Y-61454819D02*
X110309523Y-61454819D01*
X111023809Y-61931009D02*
X111166666Y-61978628D01*
X111166666Y-61978628D02*
X111214285Y-62026247D01*
X111214285Y-62026247D02*
X111261904Y-62121485D01*
X111261904Y-62121485D02*
X111261904Y-62264342D01*
X111261904Y-62264342D02*
X111214285Y-62359580D01*
X111214285Y-62359580D02*
X111166666Y-62407200D01*
X111166666Y-62407200D02*
X111071428Y-62454819D01*
X111071428Y-62454819D02*
X110690476Y-62454819D01*
X110690476Y-62454819D02*
X110690476Y-61454819D01*
X110690476Y-61454819D02*
X111023809Y-61454819D01*
X111023809Y-61454819D02*
X111119047Y-61502438D01*
X111119047Y-61502438D02*
X111166666Y-61550057D01*
X111166666Y-61550057D02*
X111214285Y-61645295D01*
X111214285Y-61645295D02*
X111214285Y-61740533D01*
X111214285Y-61740533D02*
X111166666Y-61835771D01*
X111166666Y-61835771D02*
X111119047Y-61883390D01*
X111119047Y-61883390D02*
X111023809Y-61931009D01*
X111023809Y-61931009D02*
X110690476Y-61931009D01*
X112214285Y-62454819D02*
X111642857Y-62454819D01*
X111928571Y-62454819D02*
X111928571Y-61454819D01*
X111928571Y-61454819D02*
X111833333Y-61597676D01*
X111833333Y-61597676D02*
X111738095Y-61692914D01*
X111738095Y-61692914D02*
X111642857Y-61740533D01*
X122857142Y-55359580D02*
X122809523Y-55407200D01*
X122809523Y-55407200D02*
X122666666Y-55454819D01*
X122666666Y-55454819D02*
X122571428Y-55454819D01*
X122571428Y-55454819D02*
X122428571Y-55407200D01*
X122428571Y-55407200D02*
X122333333Y-55311961D01*
X122333333Y-55311961D02*
X122285714Y-55216723D01*
X122285714Y-55216723D02*
X122238095Y-55026247D01*
X122238095Y-55026247D02*
X122238095Y-54883390D01*
X122238095Y-54883390D02*
X122285714Y-54692914D01*
X122285714Y-54692914D02*
X122333333Y-54597676D01*
X122333333Y-54597676D02*
X122428571Y-54502438D01*
X122428571Y-54502438D02*
X122571428Y-54454819D01*
X122571428Y-54454819D02*
X122666666Y-54454819D01*
X122666666Y-54454819D02*
X122809523Y-54502438D01*
X122809523Y-54502438D02*
X122857142Y-54550057D01*
X123809523Y-55454819D02*
X123238095Y-55454819D01*
X123523809Y-55454819D02*
X123523809Y-54454819D01*
X123523809Y-54454819D02*
X123428571Y-54597676D01*
X123428571Y-54597676D02*
X123333333Y-54692914D01*
X123333333Y-54692914D02*
X123238095Y-54740533D01*
X124190476Y-54550057D02*
X124238095Y-54502438D01*
X124238095Y-54502438D02*
X124333333Y-54454819D01*
X124333333Y-54454819D02*
X124571428Y-54454819D01*
X124571428Y-54454819D02*
X124666666Y-54502438D01*
X124666666Y-54502438D02*
X124714285Y-54550057D01*
X124714285Y-54550057D02*
X124761904Y-54645295D01*
X124761904Y-54645295D02*
X124761904Y-54740533D01*
X124761904Y-54740533D02*
X124714285Y-54883390D01*
X124714285Y-54883390D02*
X124142857Y-55454819D01*
X124142857Y-55454819D02*
X124761904Y-55454819D01*
X109833333Y-57859580D02*
X109785714Y-57907200D01*
X109785714Y-57907200D02*
X109642857Y-57954819D01*
X109642857Y-57954819D02*
X109547619Y-57954819D01*
X109547619Y-57954819D02*
X109404762Y-57907200D01*
X109404762Y-57907200D02*
X109309524Y-57811961D01*
X109309524Y-57811961D02*
X109261905Y-57716723D01*
X109261905Y-57716723D02*
X109214286Y-57526247D01*
X109214286Y-57526247D02*
X109214286Y-57383390D01*
X109214286Y-57383390D02*
X109261905Y-57192914D01*
X109261905Y-57192914D02*
X109309524Y-57097676D01*
X109309524Y-57097676D02*
X109404762Y-57002438D01*
X109404762Y-57002438D02*
X109547619Y-56954819D01*
X109547619Y-56954819D02*
X109642857Y-56954819D01*
X109642857Y-56954819D02*
X109785714Y-57002438D01*
X109785714Y-57002438D02*
X109833333Y-57050057D01*
X110690476Y-56954819D02*
X110500000Y-56954819D01*
X110500000Y-56954819D02*
X110404762Y-57002438D01*
X110404762Y-57002438D02*
X110357143Y-57050057D01*
X110357143Y-57050057D02*
X110261905Y-57192914D01*
X110261905Y-57192914D02*
X110214286Y-57383390D01*
X110214286Y-57383390D02*
X110214286Y-57764342D01*
X110214286Y-57764342D02*
X110261905Y-57859580D01*
X110261905Y-57859580D02*
X110309524Y-57907200D01*
X110309524Y-57907200D02*
X110404762Y-57954819D01*
X110404762Y-57954819D02*
X110595238Y-57954819D01*
X110595238Y-57954819D02*
X110690476Y-57907200D01*
X110690476Y-57907200D02*
X110738095Y-57859580D01*
X110738095Y-57859580D02*
X110785714Y-57764342D01*
X110785714Y-57764342D02*
X110785714Y-57526247D01*
X110785714Y-57526247D02*
X110738095Y-57431009D01*
X110738095Y-57431009D02*
X110690476Y-57383390D01*
X110690476Y-57383390D02*
X110595238Y-57335771D01*
X110595238Y-57335771D02*
X110404762Y-57335771D01*
X110404762Y-57335771D02*
X110309524Y-57383390D01*
X110309524Y-57383390D02*
X110261905Y-57431009D01*
X110261905Y-57431009D02*
X110214286Y-57526247D01*
X107357142Y-57359580D02*
X107309523Y-57407200D01*
X107309523Y-57407200D02*
X107166666Y-57454819D01*
X107166666Y-57454819D02*
X107071428Y-57454819D01*
X107071428Y-57454819D02*
X106928571Y-57407200D01*
X106928571Y-57407200D02*
X106833333Y-57311961D01*
X106833333Y-57311961D02*
X106785714Y-57216723D01*
X106785714Y-57216723D02*
X106738095Y-57026247D01*
X106738095Y-57026247D02*
X106738095Y-56883390D01*
X106738095Y-56883390D02*
X106785714Y-56692914D01*
X106785714Y-56692914D02*
X106833333Y-56597676D01*
X106833333Y-56597676D02*
X106928571Y-56502438D01*
X106928571Y-56502438D02*
X107071428Y-56454819D01*
X107071428Y-56454819D02*
X107166666Y-56454819D01*
X107166666Y-56454819D02*
X107309523Y-56502438D01*
X107309523Y-56502438D02*
X107357142Y-56550057D01*
X108309523Y-57454819D02*
X107738095Y-57454819D01*
X108023809Y-57454819D02*
X108023809Y-56454819D01*
X108023809Y-56454819D02*
X107928571Y-56597676D01*
X107928571Y-56597676D02*
X107833333Y-56692914D01*
X107833333Y-56692914D02*
X107738095Y-56740533D01*
X109261904Y-57454819D02*
X108690476Y-57454819D01*
X108976190Y-57454819D02*
X108976190Y-56454819D01*
X108976190Y-56454819D02*
X108880952Y-56597676D01*
X108880952Y-56597676D02*
X108785714Y-56692914D01*
X108785714Y-56692914D02*
X108690476Y-56740533D01*
X115238095Y-48104819D02*
X115238095Y-48914342D01*
X115238095Y-48914342D02*
X115285714Y-49009580D01*
X115285714Y-49009580D02*
X115333333Y-49057200D01*
X115333333Y-49057200D02*
X115428571Y-49104819D01*
X115428571Y-49104819D02*
X115619047Y-49104819D01*
X115619047Y-49104819D02*
X115714285Y-49057200D01*
X115714285Y-49057200D02*
X115761904Y-49009580D01*
X115761904Y-49009580D02*
X115809523Y-48914342D01*
X115809523Y-48914342D02*
X115809523Y-48104819D01*
X116809523Y-49104819D02*
X116238095Y-49104819D01*
X116523809Y-49104819D02*
X116523809Y-48104819D01*
X116523809Y-48104819D02*
X116428571Y-48247676D01*
X116428571Y-48247676D02*
X116333333Y-48342914D01*
X116333333Y-48342914D02*
X116238095Y-48390533D01*
X113833333Y-62359580D02*
X113785714Y-62407200D01*
X113785714Y-62407200D02*
X113642857Y-62454819D01*
X113642857Y-62454819D02*
X113547619Y-62454819D01*
X113547619Y-62454819D02*
X113404762Y-62407200D01*
X113404762Y-62407200D02*
X113309524Y-62311961D01*
X113309524Y-62311961D02*
X113261905Y-62216723D01*
X113261905Y-62216723D02*
X113214286Y-62026247D01*
X113214286Y-62026247D02*
X113214286Y-61883390D01*
X113214286Y-61883390D02*
X113261905Y-61692914D01*
X113261905Y-61692914D02*
X113309524Y-61597676D01*
X113309524Y-61597676D02*
X113404762Y-61502438D01*
X113404762Y-61502438D02*
X113547619Y-61454819D01*
X113547619Y-61454819D02*
X113642857Y-61454819D01*
X113642857Y-61454819D02*
X113785714Y-61502438D01*
X113785714Y-61502438D02*
X113833333Y-61550057D01*
X114309524Y-62454819D02*
X114500000Y-62454819D01*
X114500000Y-62454819D02*
X114595238Y-62407200D01*
X114595238Y-62407200D02*
X114642857Y-62359580D01*
X114642857Y-62359580D02*
X114738095Y-62216723D01*
X114738095Y-62216723D02*
X114785714Y-62026247D01*
X114785714Y-62026247D02*
X114785714Y-61645295D01*
X114785714Y-61645295D02*
X114738095Y-61550057D01*
X114738095Y-61550057D02*
X114690476Y-61502438D01*
X114690476Y-61502438D02*
X114595238Y-61454819D01*
X114595238Y-61454819D02*
X114404762Y-61454819D01*
X114404762Y-61454819D02*
X114309524Y-61502438D01*
X114309524Y-61502438D02*
X114261905Y-61550057D01*
X114261905Y-61550057D02*
X114214286Y-61645295D01*
X114214286Y-61645295D02*
X114214286Y-61883390D01*
X114214286Y-61883390D02*
X114261905Y-61978628D01*
X114261905Y-61978628D02*
X114309524Y-62026247D01*
X114309524Y-62026247D02*
X114404762Y-62073866D01*
X114404762Y-62073866D02*
X114595238Y-62073866D01*
X114595238Y-62073866D02*
X114690476Y-62026247D01*
X114690476Y-62026247D02*
X114738095Y-61978628D01*
X114738095Y-61978628D02*
X114785714Y-61883390D01*
X130907142Y-60359580D02*
X130859523Y-60407200D01*
X130859523Y-60407200D02*
X130716666Y-60454819D01*
X130716666Y-60454819D02*
X130621428Y-60454819D01*
X130621428Y-60454819D02*
X130478571Y-60407200D01*
X130478571Y-60407200D02*
X130383333Y-60311961D01*
X130383333Y-60311961D02*
X130335714Y-60216723D01*
X130335714Y-60216723D02*
X130288095Y-60026247D01*
X130288095Y-60026247D02*
X130288095Y-59883390D01*
X130288095Y-59883390D02*
X130335714Y-59692914D01*
X130335714Y-59692914D02*
X130383333Y-59597676D01*
X130383333Y-59597676D02*
X130478571Y-59502438D01*
X130478571Y-59502438D02*
X130621428Y-59454819D01*
X130621428Y-59454819D02*
X130716666Y-59454819D01*
X130716666Y-59454819D02*
X130859523Y-59502438D01*
X130859523Y-59502438D02*
X130907142Y-59550057D01*
X131859523Y-60454819D02*
X131288095Y-60454819D01*
X131573809Y-60454819D02*
X131573809Y-59454819D01*
X131573809Y-59454819D02*
X131478571Y-59597676D01*
X131478571Y-59597676D02*
X131383333Y-59692914D01*
X131383333Y-59692914D02*
X131288095Y-59740533D01*
X132192857Y-59454819D02*
X132811904Y-59454819D01*
X132811904Y-59454819D02*
X132478571Y-59835771D01*
X132478571Y-59835771D02*
X132621428Y-59835771D01*
X132621428Y-59835771D02*
X132716666Y-59883390D01*
X132716666Y-59883390D02*
X132764285Y-59931009D01*
X132764285Y-59931009D02*
X132811904Y-60026247D01*
X132811904Y-60026247D02*
X132811904Y-60264342D01*
X132811904Y-60264342D02*
X132764285Y-60359580D01*
X132764285Y-60359580D02*
X132716666Y-60407200D01*
X132716666Y-60407200D02*
X132621428Y-60454819D01*
X132621428Y-60454819D02*
X132335714Y-60454819D01*
X132335714Y-60454819D02*
X132240476Y-60407200D01*
X132240476Y-60407200D02*
X132192857Y-60359580D01*
X112333333Y-44954819D02*
X112000000Y-44478628D01*
X111761905Y-44954819D02*
X111761905Y-43954819D01*
X111761905Y-43954819D02*
X112142857Y-43954819D01*
X112142857Y-43954819D02*
X112238095Y-44002438D01*
X112238095Y-44002438D02*
X112285714Y-44050057D01*
X112285714Y-44050057D02*
X112333333Y-44145295D01*
X112333333Y-44145295D02*
X112333333Y-44288152D01*
X112333333Y-44288152D02*
X112285714Y-44383390D01*
X112285714Y-44383390D02*
X112238095Y-44431009D01*
X112238095Y-44431009D02*
X112142857Y-44478628D01*
X112142857Y-44478628D02*
X111761905Y-44478628D01*
X113285714Y-44954819D02*
X112714286Y-44954819D01*
X113000000Y-44954819D02*
X113000000Y-43954819D01*
X113000000Y-43954819D02*
X112904762Y-44097676D01*
X112904762Y-44097676D02*
X112809524Y-44192914D01*
X112809524Y-44192914D02*
X112714286Y-44240533D01*
X133761905Y-64742319D02*
X133761905Y-63742319D01*
X133761905Y-63742319D02*
X134000000Y-63742319D01*
X134000000Y-63742319D02*
X134142857Y-63789938D01*
X134142857Y-63789938D02*
X134238095Y-63885176D01*
X134238095Y-63885176D02*
X134285714Y-63980414D01*
X134285714Y-63980414D02*
X134333333Y-64170890D01*
X134333333Y-64170890D02*
X134333333Y-64313747D01*
X134333333Y-64313747D02*
X134285714Y-64504223D01*
X134285714Y-64504223D02*
X134238095Y-64599461D01*
X134238095Y-64599461D02*
X134142857Y-64694700D01*
X134142857Y-64694700D02*
X134000000Y-64742319D01*
X134000000Y-64742319D02*
X133761905Y-64742319D01*
X135285714Y-64742319D02*
X134714286Y-64742319D01*
X135000000Y-64742319D02*
X135000000Y-63742319D01*
X135000000Y-63742319D02*
X134904762Y-63885176D01*
X134904762Y-63885176D02*
X134809524Y-63980414D01*
X134809524Y-63980414D02*
X134714286Y-64028033D01*
X102023809Y-55978628D02*
X102023809Y-56454819D01*
X101690476Y-55454819D02*
X102023809Y-55978628D01*
X102023809Y-55978628D02*
X102357142Y-55454819D01*
X103214285Y-56454819D02*
X102642857Y-56454819D01*
X102928571Y-56454819D02*
X102928571Y-55454819D01*
X102928571Y-55454819D02*
X102833333Y-55597676D01*
X102833333Y-55597676D02*
X102738095Y-55692914D01*
X102738095Y-55692914D02*
X102642857Y-55740533D01*
X126003333Y-52954819D02*
X125670000Y-52478628D01*
X125431905Y-52954819D02*
X125431905Y-51954819D01*
X125431905Y-51954819D02*
X125812857Y-51954819D01*
X125812857Y-51954819D02*
X125908095Y-52002438D01*
X125908095Y-52002438D02*
X125955714Y-52050057D01*
X125955714Y-52050057D02*
X126003333Y-52145295D01*
X126003333Y-52145295D02*
X126003333Y-52288152D01*
X126003333Y-52288152D02*
X125955714Y-52383390D01*
X125955714Y-52383390D02*
X125908095Y-52431009D01*
X125908095Y-52431009D02*
X125812857Y-52478628D01*
X125812857Y-52478628D02*
X125431905Y-52478628D01*
X126384286Y-52050057D02*
X126431905Y-52002438D01*
X126431905Y-52002438D02*
X126527143Y-51954819D01*
X126527143Y-51954819D02*
X126765238Y-51954819D01*
X126765238Y-51954819D02*
X126860476Y-52002438D01*
X126860476Y-52002438D02*
X126908095Y-52050057D01*
X126908095Y-52050057D02*
X126955714Y-52145295D01*
X126955714Y-52145295D02*
X126955714Y-52240533D01*
X126955714Y-52240533D02*
X126908095Y-52383390D01*
X126908095Y-52383390D02*
X126336667Y-52954819D01*
X126336667Y-52954819D02*
X126955714Y-52954819D01*
D14*
%TO.C,R4*%
X114653641Y-63120000D02*
X114346359Y-63120000D01*
X114653641Y-63880000D02*
X114346359Y-63880000D01*
%TO.C,C8*%
X109107836Y-59640000D02*
X108892164Y-59640000D01*
X109107836Y-60360000D02*
X108892164Y-60360000D01*
%TO.C,C2*%
X121640000Y-51892164D02*
X121640000Y-52107836D01*
X122360000Y-51892164D02*
X122360000Y-52107836D01*
%TO.C,C4*%
X109640000Y-51607836D02*
X109640000Y-51392164D01*
X110360000Y-51607836D02*
X110360000Y-51392164D01*
%TO.C,C5*%
X113392164Y-46640000D02*
X113607836Y-46640000D01*
X113392164Y-47360000D02*
X113607836Y-47360000D01*
%TO.C,J4*%
X110370000Y-69330000D02*
X110370000Y-68000000D01*
X111700000Y-69330000D02*
X110370000Y-69330000D01*
X112970000Y-66670000D02*
X120650000Y-66670000D01*
X112970000Y-69330000D02*
X112970000Y-66670000D01*
X112970000Y-69330000D02*
X120650000Y-69330000D01*
X120650000Y-69330000D02*
X120650000Y-66670000D01*
%TO.C,C10*%
X107640000Y-53607836D02*
X107640000Y-53392164D01*
X108360000Y-53607836D02*
X108360000Y-53392164D01*
%TO.C,R5*%
X117346359Y-63620000D02*
X117653641Y-63620000D01*
X117346359Y-64380000D02*
X117653641Y-64380000D01*
%TO.C,C1*%
X113392164Y-48140000D02*
X113607836Y-48140000D01*
X113392164Y-48860000D02*
X113607836Y-48860000D01*
%TO.C,R3*%
X134653641Y-58620000D02*
X134346359Y-58620000D01*
X134653641Y-59380000D02*
X134346359Y-59380000D01*
%TO.C,U2*%
X122640000Y-60650000D02*
X122640000Y-64410000D01*
X122640000Y-64410000D02*
X123900000Y-64410000D01*
X129460000Y-60650000D02*
X129460000Y-64410000D01*
X129460000Y-64410000D02*
X128200000Y-64410000D01*
X129690000Y-59610000D02*
X129360000Y-59370000D01*
X129690000Y-59130000D01*
X129690000Y-59610000D01*
G36*
X129690000Y-59610000D02*
G01*
X129360000Y-59370000D01*
X129690000Y-59130000D01*
X129690000Y-59610000D01*
G37*
%TO.C,C7*%
X109107836Y-58140000D02*
X108892164Y-58140000D01*
X109107836Y-58860000D02*
X108892164Y-58860000D01*
%TO.C,C3*%
X119107836Y-60140000D02*
X118892164Y-60140000D01*
X119107836Y-60860000D02*
X118892164Y-60860000D01*
%TO.C,FB1*%
X110490000Y-59337221D02*
X110490000Y-59662779D01*
X111510000Y-59337221D02*
X111510000Y-59662779D01*
%TO.C,C12*%
X125288748Y-56265000D02*
X125811252Y-56265000D01*
X125288748Y-57735000D02*
X125811252Y-57735000D01*
D13*
%TO.C,J1*%
X131175000Y-53580000D02*
X131175000Y-54305000D01*
X131175000Y-54305000D02*
X131600000Y-54305000D01*
X131600000Y-50705000D02*
X131600000Y-49705000D01*
X131600000Y-54305000D02*
X131600000Y-55305000D01*
X133350000Y-56655000D02*
X134750000Y-56655000D01*
X134750000Y-48355000D02*
X133350000Y-48355000D01*
X137150000Y-56655000D02*
X137300000Y-56655000D01*
X137300000Y-48355000D02*
X137150000Y-48355000D01*
X137300000Y-48655000D02*
X137300000Y-48355000D01*
X137300000Y-56355000D02*
X137750000Y-56355000D01*
X137300000Y-56655000D02*
X137300000Y-56355000D01*
X137750000Y-48655000D02*
X137300000Y-48655000D01*
D14*
%TO.C,C6*%
X109640000Y-56107836D02*
X109640000Y-55892164D01*
X110360000Y-56107836D02*
X110360000Y-55892164D01*
%TO.C,J3*%
X108850000Y-37670000D02*
X108850000Y-40330000D01*
X116530000Y-37670000D02*
X108850000Y-37670000D01*
X116530000Y-37670000D02*
X116530000Y-40330000D01*
X116530000Y-40330000D02*
X108850000Y-40330000D01*
X117800000Y-37670000D02*
X119130000Y-37670000D01*
X119130000Y-37670000D02*
X119130000Y-39000000D01*
%TO.C,C11*%
X107640000Y-55607836D02*
X107640000Y-55392164D01*
X108360000Y-55607836D02*
X108360000Y-55392164D01*
%TO.C,U1*%
X112390000Y-50890000D02*
X112390000Y-51340000D01*
X112390000Y-58110000D02*
X112390000Y-57660000D01*
X112840000Y-50890000D02*
X112390000Y-50890000D01*
X112840000Y-58110000D02*
X112390000Y-58110000D01*
X119160000Y-50890000D02*
X119610000Y-50890000D01*
X119160000Y-58110000D02*
X119610000Y-58110000D01*
X119610000Y-50890000D02*
X119610000Y-51340000D01*
X119610000Y-58110000D02*
X119610000Y-57660000D01*
X111800000Y-51340000D02*
X111460000Y-50870000D01*
X112140000Y-50870000D01*
X111800000Y-51340000D01*
G36*
X111800000Y-51340000D02*
G01*
X111460000Y-50870000D01*
X112140000Y-50870000D01*
X111800000Y-51340000D01*
G37*
%TO.C,C9*%
X113892164Y-60140000D02*
X114107836Y-60140000D01*
X113892164Y-60860000D02*
X114107836Y-60860000D01*
%TO.C,C13*%
X130315000Y-62761252D02*
X130315000Y-62238748D01*
X131785000Y-62761252D02*
X131785000Y-62238748D01*
%TO.C,SW1*%
X102270000Y-45800000D02*
X102270000Y-46700000D01*
X102480000Y-45600000D02*
X102270000Y-45800000D01*
X102480000Y-46900000D02*
X102270000Y-46700000D01*
X102480000Y-46900000D02*
X103770000Y-46900000D01*
X103770000Y-44150000D02*
X103770000Y-49850000D01*
X103770000Y-45600000D02*
X102480000Y-45600000D01*
X104780000Y-50450000D02*
X105570000Y-50450000D01*
X105570000Y-43550000D02*
X104780000Y-43550000D01*
X106620000Y-45400000D02*
X106620000Y-47100000D01*
X106620000Y-48400000D02*
X106620000Y-48600000D01*
%TO.C,R1*%
X110346359Y-44120000D02*
X110653641Y-44120000D01*
X110346359Y-44880000D02*
X110653641Y-44880000D01*
%TO.C,J2*%
X120850000Y-37670000D02*
X120850000Y-40330000D01*
X128530000Y-37670000D02*
X120850000Y-37670000D01*
X128530000Y-37670000D02*
X128530000Y-40330000D01*
X128530000Y-40330000D02*
X120850000Y-40330000D01*
X129800000Y-37670000D02*
X131130000Y-37670000D01*
X131130000Y-37670000D02*
X131130000Y-39000000D01*
%TO.C,D1*%
X133765000Y-60015000D02*
X133765000Y-62300000D01*
X135235000Y-60015000D02*
X133765000Y-60015000D01*
X135235000Y-62300000D02*
X135235000Y-60015000D01*
%TO.C,Y1*%
X103350000Y-54000000D02*
X103350000Y-58000000D01*
X106650000Y-54000000D02*
X103350000Y-54000000D01*
%TO.C,R2*%
X124620000Y-52346359D02*
X124620000Y-52653641D01*
X125380000Y-52346359D02*
X125380000Y-52653641D01*
%TD*%
M02*
