%TF.GenerationSoftware,KiCad,Pcbnew,8.0.3*%
%TF.CreationDate,2024-07-09T00:13:46+05:30*%
%TF.ProjectId,STM32 PCB DESIGN,53544d33-3220-4504-9342-204445534947,rev?*%
%TF.SameCoordinates,Original*%
%TF.FileFunction,Paste,Top*%
%TF.FilePolarity,Positive*%
%FSLAX46Y46*%
G04 Gerber Fmt 4.6, Leading zero omitted, Abs format (unit mm)*
G04 Created by KiCad (PCBNEW 8.0.3) date 2024-07-09 00:13:46*
%MOMM*%
%LPD*%
G01*
G04 APERTURE LIST*
G04 Aperture macros list*
%AMRoundRect*
0 Rectangle with rounded corners*
0 $1 Rounding radius*
0 $2 $3 $4 $5 $6 $7 $8 $9 X,Y pos of 4 corners*
0 Add a 4 corners polygon primitive as box body*
4,1,4,$2,$3,$4,$5,$6,$7,$8,$9,$2,$3,0*
0 Add four circle primitives for the rounded corners*
1,1,$1+$1,$2,$3*
1,1,$1+$1,$4,$5*
1,1,$1+$1,$6,$7*
1,1,$1+$1,$8,$9*
0 Add four rect primitives between the rounded corners*
20,1,$1+$1,$2,$3,$4,$5,0*
20,1,$1+$1,$4,$5,$6,$7,0*
20,1,$1+$1,$6,$7,$8,$9,0*
20,1,$1+$1,$8,$9,$2,$3,0*%
G04 Aperture macros list end*
%ADD10RoundRect,0.135000X0.135000X0.185000X-0.135000X0.185000X-0.135000X-0.185000X0.135000X-0.185000X0*%
%ADD11RoundRect,0.140000X0.140000X0.170000X-0.140000X0.170000X-0.140000X-0.170000X0.140000X-0.170000X0*%
%ADD12RoundRect,0.140000X-0.170000X0.140000X-0.170000X-0.140000X0.170000X-0.140000X0.170000X0.140000X0*%
%ADD13RoundRect,0.140000X0.170000X-0.140000X0.170000X0.140000X-0.170000X0.140000X-0.170000X-0.140000X0*%
%ADD14RoundRect,0.140000X-0.140000X-0.170000X0.140000X-0.170000X0.140000X0.170000X-0.140000X0.170000X0*%
%ADD15RoundRect,0.135000X-0.135000X-0.185000X0.135000X-0.185000X0.135000X0.185000X-0.135000X0.185000X0*%
%ADD16RoundRect,0.375000X-0.375000X0.625000X-0.375000X-0.625000X0.375000X-0.625000X0.375000X0.625000X0*%
%ADD17RoundRect,0.500000X-1.400000X0.500000X-1.400000X-0.500000X1.400000X-0.500000X1.400000X0.500000X0*%
%ADD18RoundRect,0.218750X-0.256250X0.218750X-0.256250X-0.218750X0.256250X-0.218750X0.256250X0.218750X0*%
%ADD19RoundRect,0.250000X-0.250000X-0.475000X0.250000X-0.475000X0.250000X0.475000X-0.250000X0.475000X0*%
%ADD20R,1.300000X0.450000*%
%ADD21RoundRect,0.075000X-0.662500X-0.075000X0.662500X-0.075000X0.662500X0.075000X-0.662500X0.075000X0*%
%ADD22RoundRect,0.075000X-0.075000X-0.662500X0.075000X-0.662500X0.075000X0.662500X-0.075000X0.662500X0*%
%ADD23RoundRect,0.250000X0.475000X-0.250000X0.475000X0.250000X-0.475000X0.250000X-0.475000X-0.250000X0*%
%ADD24R,0.800000X1.000000*%
%ADD25R,1.500000X0.700000*%
%ADD26R,1.200000X1.400000*%
%ADD27RoundRect,0.135000X-0.185000X0.135000X-0.185000X-0.135000X0.185000X-0.135000X0.185000X0.135000X0*%
G04 APERTURE END LIST*
D10*
%TO.C,R4*%
X115010000Y-63500000D03*
X113990000Y-63500000D03*
%TD*%
D11*
%TO.C,C8*%
X109480000Y-60000000D03*
X108520000Y-60000000D03*
%TD*%
D12*
%TO.C,C2*%
X122000000Y-51520000D03*
X122000000Y-52480000D03*
%TD*%
D13*
%TO.C,C4*%
X110000000Y-51980000D03*
X110000000Y-51020000D03*
%TD*%
D14*
%TO.C,C5*%
X113020000Y-47000000D03*
X113980000Y-47000000D03*
%TD*%
D13*
%TO.C,C10*%
X108000000Y-53980000D03*
X108000000Y-53020000D03*
%TD*%
D15*
%TO.C,R5*%
X116990000Y-64000000D03*
X118010000Y-64000000D03*
%TD*%
D14*
%TO.C,C1*%
X113020000Y-48500000D03*
X113980000Y-48500000D03*
%TD*%
D10*
%TO.C,R3*%
X135010000Y-59000000D03*
X133990000Y-59000000D03*
%TD*%
D16*
%TO.C,U2*%
X128350000Y-59350000D03*
X126050000Y-59350000D03*
D17*
X126050000Y-65650000D03*
D16*
X123750000Y-59350000D03*
%TD*%
D11*
%TO.C,C7*%
X109480000Y-58500000D03*
X108520000Y-58500000D03*
%TD*%
%TO.C,C3*%
X119480000Y-60500000D03*
X118520000Y-60500000D03*
%TD*%
D18*
%TO.C,FB1*%
X111000000Y-58712500D03*
X111000000Y-60287500D03*
%TD*%
D19*
%TO.C,C12*%
X124600000Y-57000000D03*
X126500000Y-57000000D03*
%TD*%
D20*
%TO.C,J1*%
X132100000Y-53805000D03*
X132100000Y-53155000D03*
X132100000Y-52505000D03*
X132100000Y-51855000D03*
X132100000Y-51205000D03*
%TD*%
D13*
%TO.C,C6*%
X110000000Y-56480000D03*
X110000000Y-55520000D03*
%TD*%
%TO.C,C11*%
X108000000Y-55980000D03*
X108000000Y-55020000D03*
%TD*%
D21*
%TO.C,U1*%
X111837500Y-51750000D03*
X111837500Y-52250000D03*
X111837500Y-52750000D03*
X111837500Y-53250000D03*
X111837500Y-53750000D03*
X111837500Y-54250000D03*
X111837500Y-54750000D03*
X111837500Y-55250000D03*
X111837500Y-55750000D03*
X111837500Y-56250000D03*
X111837500Y-56750000D03*
X111837500Y-57250000D03*
D22*
X113250000Y-58662500D03*
X113750000Y-58662500D03*
X114250000Y-58662500D03*
X114750000Y-58662500D03*
X115250000Y-58662500D03*
X115750000Y-58662500D03*
X116250000Y-58662500D03*
X116750000Y-58662500D03*
X117250000Y-58662500D03*
X117750000Y-58662500D03*
X118250000Y-58662500D03*
X118750000Y-58662500D03*
D21*
X120162500Y-57250000D03*
X120162500Y-56750000D03*
X120162500Y-56250000D03*
X120162500Y-55750000D03*
X120162500Y-55250000D03*
X120162500Y-54750000D03*
X120162500Y-54250000D03*
X120162500Y-53750000D03*
X120162500Y-53250000D03*
X120162500Y-52750000D03*
X120162500Y-52250000D03*
X120162500Y-51750000D03*
D22*
X118750000Y-50337500D03*
X118250000Y-50337500D03*
X117750000Y-50337500D03*
X117250000Y-50337500D03*
X116750000Y-50337500D03*
X116250000Y-50337500D03*
X115750000Y-50337500D03*
X115250000Y-50337500D03*
X114750000Y-50337500D03*
X114250000Y-50337500D03*
X113750000Y-50337500D03*
X113250000Y-50337500D03*
%TD*%
D14*
%TO.C,C9*%
X113520000Y-60500000D03*
X114480000Y-60500000D03*
%TD*%
D23*
%TO.C,C13*%
X131050000Y-63450000D03*
X131050000Y-61550000D03*
%TD*%
D24*
%TO.C,SW1*%
X106280000Y-43350000D03*
X104070000Y-43350000D03*
X106280000Y-50650000D03*
X104070000Y-50650000D03*
D25*
X106930000Y-44750000D03*
X106930000Y-47750000D03*
X106930000Y-49250000D03*
%TD*%
D15*
%TO.C,R1*%
X109990000Y-44500000D03*
X111010000Y-44500000D03*
%TD*%
D18*
%TO.C,D1*%
X134500000Y-60712500D03*
X134500000Y-62287500D03*
%TD*%
D26*
%TO.C,Y1*%
X104150000Y-54900000D03*
X104150000Y-57100000D03*
X105850000Y-57100000D03*
X105850000Y-54900000D03*
%TD*%
D27*
%TO.C,R2*%
X125000000Y-51990000D03*
X125000000Y-53010000D03*
%TD*%
M02*
