%TF.GenerationSoftware,KiCad,Pcbnew,8.0.3*%
%TF.CreationDate,2024-07-09T00:13:46+05:30*%
%TF.ProjectId,STM32 PCB DESIGN,53544d33-3220-4504-9342-204445534947,rev?*%
%TF.SameCoordinates,Original*%
%TF.FileFunction,Copper,L1,Top*%
%TF.FilePolarity,Positive*%
%FSLAX46Y46*%
G04 Gerber Fmt 4.6, Leading zero omitted, Abs format (unit mm)*
G04 Created by KiCad (PCBNEW 8.0.3) date 2024-07-09 00:13:46*
%MOMM*%
%LPD*%
G01*
G04 APERTURE LIST*
G04 Aperture macros list*
%AMRoundRect*
0 Rectangle with rounded corners*
0 $1 Rounding radius*
0 $2 $3 $4 $5 $6 $7 $8 $9 X,Y pos of 4 corners*
0 Add a 4 corners polygon primitive as box body*
4,1,4,$2,$3,$4,$5,$6,$7,$8,$9,$2,$3,0*
0 Add four circle primitives for the rounded corners*
1,1,$1+$1,$2,$3*
1,1,$1+$1,$4,$5*
1,1,$1+$1,$6,$7*
1,1,$1+$1,$8,$9*
0 Add four rect primitives between the rounded corners*
20,1,$1+$1,$2,$3,$4,$5,0*
20,1,$1+$1,$4,$5,$6,$7,0*
20,1,$1+$1,$6,$7,$8,$9,0*
20,1,$1+$1,$8,$9,$2,$3,0*%
G04 Aperture macros list end*
%TA.AperFunction,SMDPad,CuDef*%
%ADD10RoundRect,0.135000X0.135000X0.185000X-0.135000X0.185000X-0.135000X-0.185000X0.135000X-0.185000X0*%
%TD*%
%TA.AperFunction,SMDPad,CuDef*%
%ADD11RoundRect,0.140000X0.140000X0.170000X-0.140000X0.170000X-0.140000X-0.170000X0.140000X-0.170000X0*%
%TD*%
%TA.AperFunction,SMDPad,CuDef*%
%ADD12RoundRect,0.140000X-0.170000X0.140000X-0.170000X-0.140000X0.170000X-0.140000X0.170000X0.140000X0*%
%TD*%
%TA.AperFunction,SMDPad,CuDef*%
%ADD13RoundRect,0.140000X0.170000X-0.140000X0.170000X0.140000X-0.170000X0.140000X-0.170000X-0.140000X0*%
%TD*%
%TA.AperFunction,SMDPad,CuDef*%
%ADD14RoundRect,0.140000X-0.140000X-0.170000X0.140000X-0.170000X0.140000X0.170000X-0.140000X0.170000X0*%
%TD*%
%TA.AperFunction,ComponentPad*%
%ADD15R,1.700000X1.700000*%
%TD*%
%TA.AperFunction,ComponentPad*%
%ADD16O,1.700000X1.700000*%
%TD*%
%TA.AperFunction,SMDPad,CuDef*%
%ADD17RoundRect,0.135000X-0.135000X-0.185000X0.135000X-0.185000X0.135000X0.185000X-0.135000X0.185000X0*%
%TD*%
%TA.AperFunction,SMDPad,CuDef*%
%ADD18RoundRect,0.375000X-0.375000X0.625000X-0.375000X-0.625000X0.375000X-0.625000X0.375000X0.625000X0*%
%TD*%
%TA.AperFunction,SMDPad,CuDef*%
%ADD19RoundRect,0.500000X-1.400000X0.500000X-1.400000X-0.500000X1.400000X-0.500000X1.400000X0.500000X0*%
%TD*%
%TA.AperFunction,SMDPad,CuDef*%
%ADD20RoundRect,0.218750X-0.256250X0.218750X-0.256250X-0.218750X0.256250X-0.218750X0.256250X0.218750X0*%
%TD*%
%TA.AperFunction,SMDPad,CuDef*%
%ADD21RoundRect,0.250000X-0.250000X-0.475000X0.250000X-0.475000X0.250000X0.475000X-0.250000X0.475000X0*%
%TD*%
%TA.AperFunction,SMDPad,CuDef*%
%ADD22R,1.300000X0.450000*%
%TD*%
%TA.AperFunction,ComponentPad*%
%ADD23O,1.800000X1.150000*%
%TD*%
%TA.AperFunction,ComponentPad*%
%ADD24O,2.000000X1.450000*%
%TD*%
%TA.AperFunction,SMDPad,CuDef*%
%ADD25RoundRect,0.075000X-0.662500X-0.075000X0.662500X-0.075000X0.662500X0.075000X-0.662500X0.075000X0*%
%TD*%
%TA.AperFunction,SMDPad,CuDef*%
%ADD26RoundRect,0.075000X-0.075000X-0.662500X0.075000X-0.662500X0.075000X0.662500X-0.075000X0.662500X0*%
%TD*%
%TA.AperFunction,SMDPad,CuDef*%
%ADD27RoundRect,0.250000X0.475000X-0.250000X0.475000X0.250000X-0.475000X0.250000X-0.475000X-0.250000X0*%
%TD*%
%TA.AperFunction,SMDPad,CuDef*%
%ADD28R,0.800000X1.000000*%
%TD*%
%TA.AperFunction,SMDPad,CuDef*%
%ADD29R,1.500000X0.700000*%
%TD*%
%TA.AperFunction,SMDPad,CuDef*%
%ADD30R,1.200000X1.400000*%
%TD*%
%TA.AperFunction,SMDPad,CuDef*%
%ADD31RoundRect,0.135000X-0.185000X0.135000X-0.185000X-0.135000X0.185000X-0.135000X0.185000X0.135000X0*%
%TD*%
%TA.AperFunction,ViaPad*%
%ADD32C,0.600000*%
%TD*%
%TA.AperFunction,ViaPad*%
%ADD33C,0.700000*%
%TD*%
%TA.AperFunction,Conductor*%
%ADD34C,0.500000*%
%TD*%
%TA.AperFunction,Conductor*%
%ADD35C,0.300000*%
%TD*%
%TA.AperFunction,Conductor*%
%ADD36C,0.200000*%
%TD*%
G04 APERTURE END LIST*
D10*
%TO.P,R4,1*%
%TO.N,+3.3V*%
X115010000Y-63500000D03*
%TO.P,R4,2*%
%TO.N,/I2C2_SCL*%
X113990000Y-63500000D03*
%TD*%
D11*
%TO.P,C8,1*%
%TO.N,+3.3V*%
X109480000Y-60000000D03*
%TO.P,C8,2*%
%TO.N,GND*%
X108520000Y-60000000D03*
%TD*%
D12*
%TO.P,C2,1*%
%TO.N,+3.3V*%
X122000000Y-51520000D03*
%TO.P,C2,2*%
%TO.N,GND*%
X122000000Y-52480000D03*
%TD*%
D13*
%TO.P,C4,1*%
%TO.N,+3.3V*%
X110000000Y-51980000D03*
%TO.P,C4,2*%
%TO.N,GND*%
X110000000Y-51020000D03*
%TD*%
D14*
%TO.P,C5,1*%
%TO.N,+3.3V*%
X113020000Y-47000000D03*
%TO.P,C5,2*%
%TO.N,GND*%
X113980000Y-47000000D03*
%TD*%
D15*
%TO.P,J4,1,Pin_1*%
%TO.N,+3.3V*%
X111700000Y-68000000D03*
D16*
%TO.P,J4,2,Pin_2*%
%TO.N,/I2C2_SCL*%
X114240000Y-68000000D03*
%TO.P,J4,3,Pin_3*%
%TO.N,/I2C2_SDA*%
X116780000Y-68000000D03*
%TO.P,J4,4,Pin_4*%
%TO.N,GND*%
X119320000Y-68000000D03*
%TD*%
D13*
%TO.P,C10,1*%
%TO.N,/HSE_IN*%
X108000000Y-53980000D03*
%TO.P,C10,2*%
%TO.N,GND*%
X108000000Y-53020000D03*
%TD*%
D17*
%TO.P,R5,1*%
%TO.N,+3.3V*%
X116990000Y-64000000D03*
%TO.P,R5,2*%
%TO.N,/I2C2_SDA*%
X118010000Y-64000000D03*
%TD*%
D14*
%TO.P,C1,1*%
%TO.N,+3.3V*%
X113020000Y-48500000D03*
%TO.P,C1,2*%
%TO.N,GND*%
X113980000Y-48500000D03*
%TD*%
D10*
%TO.P,R3,1*%
%TO.N,Net-(D1-K)*%
X135010000Y-59000000D03*
%TO.P,R3,2*%
%TO.N,GND*%
X133990000Y-59000000D03*
%TD*%
D18*
%TO.P,U2,1,GND*%
%TO.N,GND*%
X128350000Y-59350000D03*
%TO.P,U2,2,VO*%
%TO.N,+3.3V*%
X126050000Y-59350000D03*
D19*
X126050000Y-65650000D03*
D18*
%TO.P,U2,3,VI*%
%TO.N,VBUS*%
X123750000Y-59350000D03*
%TD*%
D11*
%TO.P,C7,1*%
%TO.N,+3.3VA*%
X109480000Y-58500000D03*
%TO.P,C7,2*%
%TO.N,GND*%
X108520000Y-58500000D03*
%TD*%
%TO.P,C3,1*%
%TO.N,+3.3V*%
X119480000Y-60500000D03*
%TO.P,C3,2*%
%TO.N,GND*%
X118520000Y-60500000D03*
%TD*%
D20*
%TO.P,FB1,1*%
%TO.N,+3.3VA*%
X111000000Y-58712500D03*
%TO.P,FB1,2*%
%TO.N,+3.3V*%
X111000000Y-60287500D03*
%TD*%
D21*
%TO.P,C12,1*%
%TO.N,VBUS*%
X124600000Y-57000000D03*
%TO.P,C12,2*%
%TO.N,GND*%
X126500000Y-57000000D03*
%TD*%
D22*
%TO.P,J1,1,VBUS*%
%TO.N,VBUS*%
X132100000Y-53805000D03*
%TO.P,J1,2,D-*%
%TO.N,/USB_D-*%
X132100000Y-53155000D03*
%TO.P,J1,3,D+*%
%TO.N,/USB_D+*%
X132100000Y-52505000D03*
%TO.P,J1,4,ID*%
%TO.N,unconnected-(J1-ID-Pad4)*%
X132100000Y-51855000D03*
%TO.P,J1,5,GND*%
%TO.N,GND*%
X132100000Y-51205000D03*
D23*
%TO.P,J1,6,Shield*%
%TO.N,unconnected-(J1-Shield-Pad6)_0*%
X135950000Y-56380000D03*
D24*
%TO.N,unconnected-(J1-Shield-Pad6)_2*%
X132150000Y-56230000D03*
%TO.N,unconnected-(J1-Shield-Pad6)*%
X132150000Y-48780000D03*
D23*
%TO.N,unconnected-(J1-Shield-Pad6)_1*%
X135950000Y-48630000D03*
%TD*%
D13*
%TO.P,C6,1*%
%TO.N,+3.3VA*%
X110000000Y-56480000D03*
%TO.P,C6,2*%
%TO.N,GND*%
X110000000Y-55520000D03*
%TD*%
D15*
%TO.P,J3,1,Pin_1*%
%TO.N,+3.3V*%
X117800000Y-39000000D03*
D16*
%TO.P,J3,2,Pin_2*%
%TO.N,/USART1_TX*%
X115260000Y-39000000D03*
%TO.P,J3,3,Pin_3*%
%TO.N,/USART1_RX*%
X112720000Y-39000000D03*
%TO.P,J3,4,Pin_4*%
%TO.N,GND*%
X110180000Y-39000000D03*
%TD*%
D13*
%TO.P,C11,1*%
%TO.N,/HSE_OUT*%
X108000000Y-55980000D03*
%TO.P,C11,2*%
%TO.N,GND*%
X108000000Y-55020000D03*
%TD*%
D25*
%TO.P,U1,1,VBAT*%
%TO.N,+3.3V*%
X111837500Y-51750000D03*
%TO.P,U1,2,PC13*%
%TO.N,unconnected-(U1-PC13-Pad2)*%
X111837500Y-52250000D03*
%TO.P,U1,3,PC14*%
%TO.N,unconnected-(U1-PC14-Pad3)*%
X111837500Y-52750000D03*
%TO.P,U1,4,PC15*%
%TO.N,unconnected-(U1-PC15-Pad4)*%
X111837500Y-53250000D03*
%TO.P,U1,5,PD0*%
%TO.N,/HSE_IN*%
X111837500Y-53750000D03*
%TO.P,U1,6,PD1*%
%TO.N,/HSE_OUT*%
X111837500Y-54250000D03*
%TO.P,U1,7,NRST*%
%TO.N,/NRST*%
X111837500Y-54750000D03*
%TO.P,U1,8,VSSA*%
%TO.N,GND*%
X111837500Y-55250000D03*
%TO.P,U1,9,VDDA*%
%TO.N,+3.3VA*%
X111837500Y-55750000D03*
%TO.P,U1,10,PA0*%
%TO.N,unconnected-(U1-PA0-Pad10)*%
X111837500Y-56250000D03*
%TO.P,U1,11,PA1*%
%TO.N,unconnected-(U1-PA1-Pad11)*%
X111837500Y-56750000D03*
%TO.P,U1,12,PA2*%
%TO.N,unconnected-(U1-PA2-Pad12)*%
X111837500Y-57250000D03*
D26*
%TO.P,U1,13,PA3*%
%TO.N,unconnected-(U1-PA3-Pad13)*%
X113250000Y-58662500D03*
%TO.P,U1,14,PA4*%
%TO.N,unconnected-(U1-PA4-Pad14)*%
X113750000Y-58662500D03*
%TO.P,U1,15,PA5*%
%TO.N,unconnected-(U1-PA5-Pad15)*%
X114250000Y-58662500D03*
%TO.P,U1,16,PA6*%
%TO.N,unconnected-(U1-PA6-Pad16)*%
X114750000Y-58662500D03*
%TO.P,U1,17,PA7*%
%TO.N,unconnected-(U1-PA7-Pad17)*%
X115250000Y-58662500D03*
%TO.P,U1,18,PB0*%
%TO.N,unconnected-(U1-PB0-Pad18)*%
X115750000Y-58662500D03*
%TO.P,U1,19,PB1*%
%TO.N,unconnected-(U1-PB1-Pad19)*%
X116250000Y-58662500D03*
%TO.P,U1,20,PB2*%
%TO.N,unconnected-(U1-PB2-Pad20)*%
X116750000Y-58662500D03*
%TO.P,U1,21,PB10*%
%TO.N,/I2C2_SCL*%
X117250000Y-58662500D03*
%TO.P,U1,22,PB11*%
%TO.N,/I2C2_SDA*%
X117750000Y-58662500D03*
%TO.P,U1,23,VSS*%
%TO.N,GND*%
X118250000Y-58662500D03*
%TO.P,U1,24,VDD*%
%TO.N,+3.3V*%
X118750000Y-58662500D03*
D25*
%TO.P,U1,25,PB12*%
%TO.N,unconnected-(U1-PB12-Pad25)*%
X120162500Y-57250000D03*
%TO.P,U1,26,PB13*%
%TO.N,unconnected-(U1-PB13-Pad26)*%
X120162500Y-56750000D03*
%TO.P,U1,27,PB14*%
%TO.N,unconnected-(U1-PB14-Pad27)*%
X120162500Y-56250000D03*
%TO.P,U1,28,PB15*%
%TO.N,unconnected-(U1-PB15-Pad28)*%
X120162500Y-55750000D03*
%TO.P,U1,29,PA8*%
%TO.N,unconnected-(U1-PA8-Pad29)*%
X120162500Y-55250000D03*
%TO.P,U1,30,PA9*%
%TO.N,unconnected-(U1-PA9-Pad30)*%
X120162500Y-54750000D03*
%TO.P,U1,31,PA10*%
%TO.N,unconnected-(U1-PA10-Pad31)*%
X120162500Y-54250000D03*
%TO.P,U1,32,PA11*%
%TO.N,/USB_D-*%
X120162500Y-53750000D03*
%TO.P,U1,33,PA12*%
%TO.N,/USB_D+*%
X120162500Y-53250000D03*
%TO.P,U1,34,PA13*%
%TO.N,/SWDIO*%
X120162500Y-52750000D03*
%TO.P,U1,35,VSS*%
%TO.N,GND*%
X120162500Y-52250000D03*
%TO.P,U1,36,VDD*%
%TO.N,+3.3V*%
X120162500Y-51750000D03*
D26*
%TO.P,U1,37,PA14*%
%TO.N,/SWCLK*%
X118750000Y-50337500D03*
%TO.P,U1,38,PA15*%
%TO.N,unconnected-(U1-PA15-Pad38)*%
X118250000Y-50337500D03*
%TO.P,U1,39,PB3*%
%TO.N,unconnected-(U1-PB3-Pad39)*%
X117750000Y-50337500D03*
%TO.P,U1,40,PB4*%
%TO.N,unconnected-(U1-PB4-Pad40)*%
X117250000Y-50337500D03*
%TO.P,U1,41,PB5*%
%TO.N,unconnected-(U1-PB5-Pad41)*%
X116750000Y-50337500D03*
%TO.P,U1,42,PB6*%
%TO.N,/USART1_TX*%
X116250000Y-50337500D03*
%TO.P,U1,43,PB7*%
%TO.N,/USART1_RX*%
X115750000Y-50337500D03*
%TO.P,U1,44,BOOT0*%
%TO.N,/BOOTO*%
X115250000Y-50337500D03*
%TO.P,U1,45,PB8*%
%TO.N,unconnected-(U1-PB8-Pad45)*%
X114750000Y-50337500D03*
%TO.P,U1,46,PB9*%
%TO.N,unconnected-(U1-PB9-Pad46)*%
X114250000Y-50337500D03*
%TO.P,U1,47,VSS*%
%TO.N,GND*%
X113750000Y-50337500D03*
%TO.P,U1,48,VDD*%
%TO.N,+3.3V*%
X113250000Y-50337500D03*
%TD*%
D14*
%TO.P,C9,1*%
%TO.N,/NRST*%
X113520000Y-60500000D03*
%TO.P,C9,2*%
%TO.N,GND*%
X114480000Y-60500000D03*
%TD*%
D27*
%TO.P,C13,1*%
%TO.N,+3.3V*%
X131050000Y-63450000D03*
%TO.P,C13,2*%
%TO.N,GND*%
X131050000Y-61550000D03*
%TD*%
D28*
%TO.P,SW1,*%
%TO.N,*%
X106280000Y-43350000D03*
X104070000Y-43350000D03*
X106280000Y-50650000D03*
X104070000Y-50650000D03*
D29*
%TO.P,SW1,1,A*%
%TO.N,GND*%
X106930000Y-44750000D03*
%TO.P,SW1,2,B*%
%TO.N,Net-(SW1-B)*%
X106930000Y-47750000D03*
%TO.P,SW1,3,C*%
%TO.N,+3.3V*%
X106930000Y-49250000D03*
%TD*%
D17*
%TO.P,R1,1*%
%TO.N,Net-(SW1-B)*%
X109990000Y-44500000D03*
%TO.P,R1,2*%
%TO.N,/BOOTO*%
X111010000Y-44500000D03*
%TD*%
D15*
%TO.P,J2,1,Pin_1*%
%TO.N,+3.3V*%
X129800000Y-39000000D03*
D16*
%TO.P,J2,2,Pin_2*%
%TO.N,/SWDIO*%
X127260000Y-39000000D03*
%TO.P,J2,3,Pin_3*%
%TO.N,/SWCLK*%
X124720000Y-39000000D03*
%TO.P,J2,4,Pin_4*%
%TO.N,GND*%
X122180000Y-39000000D03*
%TD*%
D20*
%TO.P,D1,1,K*%
%TO.N,Net-(D1-K)*%
X134500000Y-60712500D03*
%TO.P,D1,2,A*%
%TO.N,+3.3V*%
X134500000Y-62287500D03*
%TD*%
D30*
%TO.P,Y1,1,1*%
%TO.N,/HSE_IN*%
X104150000Y-54900000D03*
%TO.P,Y1,2,2*%
%TO.N,GND*%
X104150000Y-57100000D03*
%TO.P,Y1,3,3*%
%TO.N,/HSE_OUT*%
X105850000Y-57100000D03*
%TO.P,Y1,4,4*%
%TO.N,GND*%
X105850000Y-54900000D03*
%TD*%
D31*
%TO.P,R2,1*%
%TO.N,+3.3V*%
X125000000Y-51990000D03*
%TO.P,R2,2*%
%TO.N,/USB_D+*%
X125000000Y-53010000D03*
%TD*%
D32*
%TO.N,GND*%
X104000000Y-58500000D03*
X107000000Y-56000000D03*
X109000000Y-52500000D03*
%TO.N,+3.3V*%
X113000000Y-65000000D03*
X115000000Y-65000000D03*
X117000000Y-62500000D03*
X119000000Y-62500000D03*
D33*
%TO.N,GND*%
X128000000Y-57500000D03*
X132500000Y-61500000D03*
X128000000Y-56500000D03*
X115500000Y-60000000D03*
X118000000Y-57000000D03*
X109000000Y-54500000D03*
X110000000Y-50000000D03*
X129000000Y-61000000D03*
X108500000Y-61000000D03*
X128000000Y-61000000D03*
X108500000Y-43500000D03*
X133000000Y-59000000D03*
X113500000Y-55500000D03*
X114000000Y-52000000D03*
X130000000Y-51000000D03*
X107500000Y-58500000D03*
X123000000Y-52500000D03*
%TD*%
D34*
%TO.N,GND*%
X104150000Y-57100000D02*
X104150000Y-58350000D01*
X104150000Y-58350000D02*
X104000000Y-58500000D01*
X105900000Y-54900000D02*
X107000000Y-56000000D01*
X105850000Y-54900000D02*
X105900000Y-54900000D01*
%TO.N,+3.3V*%
X107500000Y-65000000D02*
X111000000Y-65000000D01*
X104000000Y-52000000D02*
X102500000Y-53500000D01*
X102500000Y-53500000D02*
X102500000Y-60000000D01*
X108000000Y-52000000D02*
X104000000Y-52000000D01*
X109000000Y-51000000D02*
X108000000Y-52000000D01*
X102500000Y-60000000D02*
X107500000Y-65000000D01*
X109000000Y-49500000D02*
X109000000Y-51000000D01*
D35*
%TO.N,/HSE_IN*%
X104150000Y-53350000D02*
X104150000Y-54900000D01*
X106500000Y-53000000D02*
X104500000Y-53000000D01*
X107480000Y-53980000D02*
X106500000Y-53000000D01*
X108000000Y-53980000D02*
X107480000Y-53980000D01*
X104500000Y-53000000D02*
X104150000Y-53350000D01*
D34*
%TO.N,+3.3V*%
X128500000Y-46500000D02*
X132000000Y-43000000D01*
X128500000Y-50000000D02*
X128500000Y-46500000D01*
X132000000Y-43000000D02*
X134500000Y-45500000D01*
X126500000Y-52000000D02*
X128500000Y-50000000D01*
X125010000Y-52000000D02*
X126500000Y-52000000D01*
X129800000Y-40800000D02*
X132000000Y-43000000D01*
X125000000Y-51990000D02*
X125010000Y-52000000D01*
X123621371Y-51990000D02*
X125000000Y-51990000D01*
X123151371Y-51520000D02*
X123621371Y-51990000D01*
X122000000Y-51520000D02*
X123151371Y-51520000D01*
X136000000Y-63500000D02*
X135000000Y-64500000D01*
X136000000Y-58500000D02*
X136000000Y-63500000D01*
X135000000Y-64500000D02*
X133000000Y-64500000D01*
X135500000Y-58000000D02*
X136000000Y-58500000D01*
X135000000Y-58000000D02*
X135500000Y-58000000D01*
X134500000Y-57500000D02*
X135000000Y-58000000D01*
X134500000Y-45500000D02*
X134500000Y-57500000D01*
X129800000Y-39000000D02*
X129800000Y-40800000D01*
X133000000Y-64500000D02*
X133000000Y-63500000D01*
X133000000Y-66000000D02*
X133000000Y-64500000D01*
%TO.N,Net-(D1-K)*%
X135010000Y-60202500D02*
X134500000Y-60712500D01*
X135010000Y-59000000D02*
X135010000Y-60202500D01*
D35*
%TO.N,+3.3V*%
X111837500Y-47162500D02*
X112000000Y-47000000D01*
X111837500Y-51750000D02*
X111837500Y-47162500D01*
D34*
X112000000Y-47000000D02*
X111000000Y-47000000D01*
X113020000Y-47000000D02*
X112000000Y-47000000D01*
X108750000Y-49250000D02*
X109000000Y-49500000D01*
X106930000Y-49250000D02*
X108750000Y-49250000D01*
X109000000Y-49000000D02*
X109000000Y-49500000D01*
X111000000Y-47000000D02*
X109000000Y-49000000D01*
X128500000Y-37000000D02*
X129800000Y-38300000D01*
X129800000Y-38300000D02*
X129800000Y-39000000D01*
X119500000Y-37000000D02*
X128500000Y-37000000D01*
X117800000Y-38700000D02*
X119500000Y-37000000D01*
X117800000Y-39000000D02*
X117800000Y-38700000D01*
%TO.N,GND*%
X108500000Y-52500000D02*
X109000000Y-52500000D01*
X108000000Y-53000000D02*
X108500000Y-52500000D01*
X108000000Y-53020000D02*
X108000000Y-53000000D01*
D35*
%TO.N,/HSE_OUT*%
X107500000Y-57000000D02*
X105950000Y-57000000D01*
X105950000Y-57000000D02*
X105850000Y-57100000D01*
X108000000Y-56500000D02*
X107500000Y-57000000D01*
X108000000Y-55980000D02*
X108000000Y-56500000D01*
D34*
%TO.N,+3.3VA*%
X110787500Y-58500000D02*
X111000000Y-58712500D01*
X109480000Y-58500000D02*
X110787500Y-58500000D01*
%TO.N,+3.3V*%
X110000000Y-61000000D02*
X111000000Y-61000000D01*
X109480000Y-60480000D02*
X110000000Y-61000000D01*
X109480000Y-60000000D02*
X109480000Y-60480000D01*
X111000000Y-61000000D02*
X111000000Y-65000000D01*
X111000000Y-60287500D02*
X111000000Y-61000000D01*
X113000000Y-65000000D02*
X111000000Y-65000000D01*
X111000000Y-65000000D02*
X111000000Y-67300000D01*
X115010000Y-64990000D02*
X115000000Y-65000000D01*
X115010000Y-63500000D02*
X115010000Y-64990000D01*
X111000000Y-67300000D02*
X111700000Y-68000000D01*
X116490000Y-63500000D02*
X116500000Y-63510000D01*
X115010000Y-63500000D02*
X116490000Y-63500000D01*
X116500000Y-63510000D02*
X116990000Y-64000000D01*
X116500000Y-63020000D02*
X116500000Y-63510000D01*
X117000000Y-62500000D02*
X116490000Y-63010000D01*
X116490000Y-63010000D02*
X116500000Y-63020000D01*
X120500000Y-62500000D02*
X120990000Y-62010000D01*
X119000000Y-62500000D02*
X120500000Y-62500000D01*
D35*
%TO.N,/I2C2_SCL*%
X114500000Y-62500000D02*
X114500000Y-63000000D01*
X114500000Y-63000000D02*
X114000000Y-63500000D01*
X117250000Y-59750000D02*
X114500000Y-62500000D01*
X117250000Y-58662500D02*
X117250000Y-59750000D01*
D34*
%TO.N,+3.3V*%
X120990000Y-62010000D02*
X121490000Y-62510000D01*
X119480000Y-60500000D02*
X120990000Y-62010000D01*
D35*
%TO.N,/I2C2_SDA*%
X118010000Y-61510000D02*
X118010000Y-63500000D01*
X117500000Y-61000000D02*
X118010000Y-61510000D01*
X117500000Y-60500000D02*
X117500000Y-61000000D01*
X117750000Y-60250000D02*
X117500000Y-60500000D01*
X117750000Y-58662500D02*
X117750000Y-60250000D01*
D34*
%TO.N,+3.3V*%
X121490000Y-62510000D02*
X121480000Y-62500000D01*
X121490000Y-62510000D02*
X122000000Y-63020000D01*
D35*
%TO.N,/I2C2_SCL*%
X114000000Y-67250000D02*
X114500000Y-67750000D01*
X114000000Y-63500000D02*
X114000000Y-67250000D01*
X114490000Y-67750000D02*
X114240000Y-68000000D01*
X114000000Y-63500000D02*
X113990000Y-63500000D01*
D34*
%TO.N,+3.3V*%
X122000000Y-63500000D02*
X122000000Y-68000000D01*
X122000000Y-63020000D02*
X122000000Y-63500000D01*
X130000000Y-69000000D02*
X133000000Y-66000000D01*
X131100000Y-63500000D02*
X133000000Y-63500000D01*
X123000000Y-69000000D02*
X130000000Y-69000000D01*
X133000000Y-63500000D02*
X133500000Y-63500000D01*
X122000000Y-68000000D02*
X123000000Y-69000000D01*
X134500000Y-62500000D02*
X134500000Y-62287500D01*
X133500000Y-63500000D02*
X134500000Y-62500000D01*
X131050000Y-63450000D02*
X131100000Y-63500000D01*
D35*
X119500000Y-60480000D02*
X119480000Y-60500000D01*
X118750000Y-58662500D02*
X119162500Y-58662500D01*
X119500000Y-59000000D02*
X119500000Y-60480000D01*
X121250000Y-51750000D02*
X121500000Y-51500000D01*
X120162500Y-51750000D02*
X121250000Y-51750000D01*
X110766880Y-51980000D02*
X110000000Y-51980000D01*
X111837500Y-51750000D02*
X110996880Y-51750000D01*
X119162500Y-58662500D02*
X119500000Y-59000000D01*
X113020000Y-48980000D02*
X113020000Y-48500000D01*
X121500000Y-51500000D02*
X121520000Y-51520000D01*
X110996880Y-51750000D02*
X110766880Y-51980000D01*
X113000000Y-49000000D02*
X113020000Y-48980000D01*
D34*
X113020000Y-48500000D02*
X113020000Y-47000000D01*
D35*
X113250000Y-49250000D02*
X113000000Y-49000000D01*
X113250000Y-50337500D02*
X113250000Y-49250000D01*
X121520000Y-51520000D02*
X122000000Y-51520000D01*
%TO.N,GND*%
X120162500Y-52250000D02*
X121250000Y-52250000D01*
X110270000Y-55250000D02*
X110000000Y-55520000D01*
X118250000Y-58662500D02*
X118250000Y-57250000D01*
D34*
X133990000Y-59000000D02*
X133000000Y-59000000D01*
X108520000Y-60000000D02*
X108520000Y-60980000D01*
D35*
X130205000Y-51205000D02*
X130000000Y-51000000D01*
X113750000Y-50337500D02*
X113750000Y-51750000D01*
D34*
X108000000Y-55020000D02*
X108480000Y-55020000D01*
D35*
X111837500Y-55250000D02*
X112750000Y-55250000D01*
D34*
X106930000Y-44750000D02*
X107250000Y-44750000D01*
D35*
X112750000Y-55250000D02*
X113000000Y-55500000D01*
D34*
X113980000Y-48500000D02*
X113980000Y-47000000D01*
D35*
X113980000Y-48980000D02*
X113980000Y-48500000D01*
X118250000Y-58662500D02*
X118250000Y-60230000D01*
D34*
X122980000Y-52480000D02*
X123000000Y-52500000D01*
X114480000Y-60500000D02*
X115000000Y-60500000D01*
D35*
X113750000Y-49250000D02*
X114000000Y-49000000D01*
X121520000Y-52480000D02*
X122000000Y-52480000D01*
D34*
X108520000Y-58500000D02*
X107500000Y-58500000D01*
X110000000Y-51020000D02*
X110000000Y-50000000D01*
X107250000Y-44750000D02*
X108500000Y-43500000D01*
D35*
X121250000Y-52250000D02*
X121500000Y-52500000D01*
X118250000Y-57250000D02*
X118000000Y-57000000D01*
D34*
X108520000Y-60980000D02*
X108500000Y-61000000D01*
X108480000Y-55020000D02*
X109000000Y-54500000D01*
X122000000Y-52480000D02*
X122980000Y-52480000D01*
D35*
X121500000Y-52500000D02*
X121520000Y-52480000D01*
X111837500Y-55250000D02*
X110270000Y-55250000D01*
X113750000Y-50337500D02*
X113750000Y-49250000D01*
X113000000Y-55500000D02*
X113500000Y-55500000D01*
X114000000Y-49000000D02*
X113980000Y-48980000D01*
X113750000Y-51750000D02*
X114000000Y-52000000D01*
X118250000Y-60230000D02*
X118520000Y-60500000D01*
D34*
X115000000Y-60500000D02*
X115500000Y-60000000D01*
D35*
X132100000Y-51205000D02*
X130205000Y-51205000D01*
%TO.N,+3.3VA*%
X111837500Y-55750000D02*
X110996880Y-55750000D01*
X110996880Y-55750000D02*
X110266880Y-56480000D01*
X110266880Y-56480000D02*
X110000000Y-56480000D01*
%TO.N,/NRST*%
X112500000Y-59480000D02*
X113520000Y-60500000D01*
X114000000Y-57000000D02*
X113500000Y-57000000D01*
X114500000Y-56500000D02*
X114000000Y-57000000D01*
X111837500Y-54750000D02*
X113750000Y-54750000D01*
X112500000Y-58000000D02*
X112500000Y-59480000D01*
X113500000Y-57000000D02*
X112500000Y-58000000D01*
X113750000Y-54750000D02*
X114500000Y-55500000D01*
X114500000Y-55500000D02*
X114500000Y-56500000D01*
%TO.N,/HSE_IN*%
X111837500Y-53750000D02*
X110250000Y-53750000D01*
X110250000Y-53750000D02*
X110000000Y-53500000D01*
X110000000Y-53500000D02*
X108789999Y-53500000D01*
X108789999Y-53500000D02*
X108309999Y-53980000D01*
X108309999Y-53980000D02*
X108000000Y-53980000D01*
%TO.N,/HSE_OUT*%
X110250000Y-54250000D02*
X108520000Y-55980000D01*
X108520000Y-55980000D02*
X108000000Y-55980000D01*
X111837500Y-54250000D02*
X110250000Y-54250000D01*
D36*
%TO.N,/USB_D-*%
X128093200Y-53725000D02*
X128763200Y-53055000D01*
X120162500Y-53750000D02*
X121268751Y-53750000D01*
X131124999Y-53155000D02*
X132100000Y-53155000D01*
X121293751Y-53725000D02*
X128093200Y-53725000D01*
X128763200Y-53055000D02*
X131024999Y-53055000D01*
X131024999Y-53055000D02*
X131124999Y-53155000D01*
X121268751Y-53750000D02*
X121293751Y-53725000D01*
%TO.N,/USB_D+*%
X121268751Y-53250000D02*
X121293751Y-53275000D01*
X121293751Y-53275000D02*
X127906800Y-53275000D01*
X128576800Y-52605000D02*
X131024999Y-52605000D01*
X120162500Y-53250000D02*
X121268751Y-53250000D01*
X127906800Y-53275000D02*
X128576800Y-52605000D01*
X131024999Y-52605000D02*
X131124999Y-52505000D01*
X131124999Y-52505000D02*
X132100000Y-52505000D01*
D35*
%TO.N,/SWCLK*%
X118750000Y-48250000D02*
X124500000Y-42500000D01*
X118750000Y-50337500D02*
X118750000Y-48250000D01*
X124500000Y-39220000D02*
X124720000Y-39000000D01*
X124500000Y-42500000D02*
X124500000Y-39220000D01*
%TO.N,/SWDIO*%
X119000000Y-51500000D02*
X127500000Y-43000000D01*
X119000000Y-52500000D02*
X119000000Y-51500000D01*
X127500000Y-39240000D02*
X127260000Y-39000000D01*
X119250000Y-52750000D02*
X119000000Y-52500000D01*
X120162500Y-52750000D02*
X119250000Y-52750000D01*
X127500000Y-43000000D02*
X127500000Y-39240000D01*
%TO.N,/USART1_RX*%
X113000000Y-41000000D02*
X112500000Y-40500000D01*
X115750000Y-41750000D02*
X115000000Y-41000000D01*
X115000000Y-41000000D02*
X113000000Y-41000000D01*
X115750000Y-50337500D02*
X115750000Y-41750000D01*
X112500000Y-40500000D02*
X112500000Y-39220000D01*
X112500000Y-39220000D02*
X112720000Y-39000000D01*
%TO.N,/USART1_TX*%
X116250000Y-50337500D02*
X116250000Y-39990000D01*
X116250000Y-39990000D02*
X115260000Y-39000000D01*
%TO.N,/I2C2_SDA*%
X118010000Y-63500000D02*
X118010000Y-66770000D01*
X118010000Y-66770000D02*
X116780000Y-68000000D01*
%TO.N,/BOOTO*%
X114500000Y-44500000D02*
X111010000Y-44500000D01*
X115250000Y-50337500D02*
X115250000Y-45250000D01*
X115250000Y-45250000D02*
X114500000Y-44500000D01*
%TO.N,Net-(SW1-B)*%
X106930000Y-46570000D02*
X106930000Y-47750000D01*
X109000000Y-44500000D02*
X106930000Y-46570000D01*
X109990000Y-44500000D02*
X109000000Y-44500000D01*
%TD*%
%TA.AperFunction,Conductor*%
%TO.N,GND*%
G36*
X128500676Y-56019685D02*
G01*
X128536811Y-56055217D01*
X129479174Y-57468761D01*
X129499982Y-57535460D01*
X129500000Y-57537544D01*
X129500000Y-60500000D01*
X132876000Y-60500000D01*
X132943039Y-60519685D01*
X132988794Y-60572489D01*
X133000000Y-60624000D01*
X133000000Y-61876000D01*
X132980315Y-61943039D01*
X132927511Y-61988794D01*
X132876000Y-62000000D01*
X127624000Y-62000000D01*
X127556961Y-61980315D01*
X127511206Y-61927511D01*
X127500000Y-61876000D01*
X127500000Y-58000000D01*
X126124000Y-58000000D01*
X126056961Y-57980315D01*
X126011206Y-57927511D01*
X126000000Y-57876000D01*
X126000000Y-56124000D01*
X126019685Y-56056961D01*
X126072489Y-56011206D01*
X126124000Y-56000000D01*
X128433637Y-56000000D01*
X128500676Y-56019685D01*
G37*
%TD.AperFunction*%
%TD*%
%TA.AperFunction,Conductor*%
%TO.N,+3.3V*%
G36*
X126943039Y-58519685D02*
G01*
X126988794Y-58572489D01*
X127000000Y-58624000D01*
X127000000Y-62000000D01*
X128000000Y-63000000D01*
X131876000Y-63000000D01*
X131943039Y-63019685D01*
X131988794Y-63072489D01*
X132000000Y-63124000D01*
X132000000Y-63876000D01*
X131980315Y-63943039D01*
X131927511Y-63988794D01*
X131876000Y-64000000D01*
X128000000Y-64000000D01*
X128000000Y-66876000D01*
X127980315Y-66943039D01*
X127927511Y-66988794D01*
X127876000Y-67000000D01*
X124124000Y-67000000D01*
X124056961Y-66980315D01*
X124011206Y-66927511D01*
X124000000Y-66876000D01*
X124000000Y-62037544D01*
X124019685Y-61970505D01*
X124020826Y-61968761D01*
X125000000Y-60500000D01*
X125000000Y-58624000D01*
X125019685Y-58556961D01*
X125072489Y-58511206D01*
X125124000Y-58500000D01*
X126876000Y-58500000D01*
X126943039Y-58519685D01*
G37*
%TD.AperFunction*%
%TD*%
%TA.AperFunction,Conductor*%
%TO.N,VBUS*%
G36*
X130950329Y-53516612D02*
G01*
X130970412Y-53528207D01*
X131072272Y-53555500D01*
X131149167Y-53555500D01*
X131216206Y-53575185D01*
X131236848Y-53591819D01*
X131277235Y-53632206D01*
X131380009Y-53677585D01*
X131405135Y-53680500D01*
X132794864Y-53680499D01*
X132794879Y-53680497D01*
X132794882Y-53680497D01*
X132819987Y-53677586D01*
X132819987Y-53677585D01*
X132819991Y-53677585D01*
X132825913Y-53674969D01*
X132895192Y-53665898D01*
X132958377Y-53695721D01*
X132995408Y-53754971D01*
X133000000Y-53788404D01*
X133000000Y-53876000D01*
X132980315Y-53943039D01*
X132927511Y-53988794D01*
X132876000Y-54000000D01*
X130500000Y-54000000D01*
X129526181Y-54486909D01*
X129470728Y-54500000D01*
X126499999Y-54500000D01*
X125000000Y-55999999D01*
X125000000Y-57948638D01*
X124980315Y-58015677D01*
X124963681Y-58036319D01*
X124500000Y-58499999D01*
X124500000Y-60376000D01*
X124480315Y-60443039D01*
X124427511Y-60488794D01*
X124376000Y-60500000D01*
X123124000Y-60500000D01*
X123056961Y-60480315D01*
X123011206Y-60427511D01*
X123000000Y-60376000D01*
X123000000Y-58551362D01*
X123019685Y-58484323D01*
X123036319Y-58463681D01*
X123500000Y-58000000D01*
X124000000Y-57500000D01*
X124000000Y-56051362D01*
X124019685Y-55984323D01*
X124036319Y-55963681D01*
X125838181Y-54161819D01*
X125899504Y-54128334D01*
X125925862Y-54125500D01*
X128145925Y-54125500D01*
X128145927Y-54125500D01*
X128247788Y-54098207D01*
X128339113Y-54045480D01*
X128348274Y-54036319D01*
X128409597Y-54002834D01*
X128435955Y-54000000D01*
X129500000Y-54000000D01*
X130473818Y-53513090D01*
X130529272Y-53500000D01*
X130888331Y-53500000D01*
X130950329Y-53516612D01*
G37*
%TD.AperFunction*%
%TD*%
M02*
