M48
; DRILL file {KiCad 8.0.3} date 2024-07-09T00:13:40+0530
; FORMAT={-:-/ absolute / inch / decimal}
; #@! TF.CreationDate,2024-07-09T00:13:40+05:30
; #@! TF.GenerationSoftware,Kicad,Pcbnew,8.0.3
; #@! TF.FileFunction,MixedPlating,1,2
FMAT,2
INCH
; #@! TA.AperFunction,Plated,PTH,ViaDrill
T1C0.0118
; #@! TA.AperFunction,Plated,PTH,ComponentDrill
T2C0.0217
; #@! TA.AperFunction,Plated,PTH,ComponentDrill
T3C0.0335
; #@! TA.AperFunction,Plated,PTH,ComponentDrill
T4C0.0394
; #@! TA.AperFunction,NonPlated,NPTH,ComponentDrill
T5C0.0315
; #@! TA.AperFunction,NonPlated,NPTH,ComponentDrill
T6C0.0354
; #@! TA.AperFunction,NonPlated,NPTH,ComponentDrill
T7C0.0866
%
G90
G05
T1
X4.0945Y-2.3031
X4.2126Y-2.2047
X4.2323Y-2.3031
X4.2717Y-1.7126
X4.2717Y-2.4016
X4.2913Y-2.0669
X4.2913Y-2.1457
X4.3307Y-1.9685
X4.4488Y-2.5591
X4.4685Y-2.185
X4.4882Y-2.0472
X4.5276Y-2.5591
X4.5472Y-2.3622
X4.6063Y-2.4606
X4.6457Y-2.2441
X4.685Y-2.4606
X4.8425Y-2.0669
X5.0394Y-2.2244
X5.0394Y-2.2638
X5.0394Y-2.4016
X5.0787Y-2.4016
X5.1181Y-2.0079
X5.2165Y-2.4213
X5.2362Y-2.3228
T4
X4.3378Y-1.5354
X4.3976Y-2.6772
X4.4378Y-1.5354
X4.4976Y-2.6772
X4.5378Y-1.5354
X4.5976Y-2.6772
X4.6378Y-1.5354
X4.6976Y-2.6772
X4.8102Y-1.5354
X4.9102Y-1.5354
X5.0102Y-1.5354
X5.1102Y-1.5354
T5
X5.2441Y-1.9687
X5.2441Y-2.1656
T6
X4.1406Y-1.7913
X4.1406Y-1.9094
T7
X4.1339Y-1.5551
X4.1339Y-2.6575
X5.315Y-1.5551
X5.315Y-2.6575
T2
G00X5.3396Y-1.9146
M15
G01X5.3652Y-1.9146
M16
G05
G00X5.3396Y-2.2197
M15
G01X5.3652Y-2.2197
M16
G05
T3
G00X5.1919Y-1.9205
M15
G01X5.2136Y-1.9205
M16
G05
G00X5.1919Y-2.2138
M15
G01X5.2136Y-2.2138
M16
G05
M30
